<?xml version="1.0" encoding="UTF-8" standalone="no"?>
<svg
   xmlns:dc="http://purl.org/dc/elements/1.1/"
   xmlns:cc="http://creativecommons.org/ns#"
   xmlns:rdf="http://www.w3.org/1999/02/22-rdf-syntax-ns#"
   xmlns:svg="http://www.w3.org/2000/svg"
   xmlns="http://www.w3.org/2000/svg"
   xmlns:sodipodi="http://sodipodi.sourceforge.net/DTD/sodipodi-0.dtd"
   xmlns:inkscape="http://www.inkscape.org/namespaces/inkscape"
   id="Layer_1"
   data-name="Layer 1"
   viewBox="0 0 479.36746 418"
   version="1.1"
   sodipodi:docname="grpc-white.svg"
   inkscape:version="0.92.4 (5da689c313, 2019-01-14)">
  <metadata
     id="metadata45">
    <rdf:RDF>
      <cc:Work
         rdf:about="">
        <dc:format>image/svg+xml</dc:format>
        <dc:type
           rdf:resource="http://purl.org/dc/dcmitype/StillImage" />
        <dc:title>grpc-newicon-2</dc:title>
      </cc:Work>
    </rdf:RDF>
  </metadata>
  <sodipodi:namedview
     pagecolor="#ffffff"
     bordercolor="#666666"
     borderopacity="1"
     objecttolerance="10"
     gridtolerance="10"
     guidetolerance="10"
     inkscape:pageopacity="0"
     inkscape:pageshadow="2"
     inkscape:window-width="1920"
     inkscape:window-height="1057"
     id="namedview43"
     showgrid="false"
     inkscape:zoom="1.596911"
     inkscape:cx="102.95253"
     inkscape:cy="181.88507"
     inkscape:window-x="-8"
     inkscape:window-y="-8"
     inkscape:window-maximized="1"
     inkscape:current-layer="Layer_1" />
  <defs
     id="defs4">
    <style
       id="style2">.cls-1,.cls-3{fill:none;}.cls-1,.cls-2{stroke:#476667;}.cls-1,.cls-2,.cls-3{stroke-miterlimit:10;stroke-width:3px;}.cls-2{fill:#54bec6;}.cls-3{stroke:#54bec6;stroke-dasharray:12 6;}</style>
  </defs>
  <title
     id="title6">grpc-newicon-2</title>
  <path
     class="cls-1"
     d="M309.39432,274.72771l-9.76528-8.33348a65.02185,65.02185,0,0,0,0-39.21706l9.76528-8.33359a76.71173,76.71173,0,0,0-11.5907-20.04692l-12.09924,4.29014a64.7345,64.7345,0,0,0-33.9473-19.60067l-2.3388-12.64648a77.48367,77.48367,0,0,0-23.15018.00011l-2.33858,12.64637a64.73691,64.73691,0,0,0-33.9473,19.60067L177.883,198.79666a76.69816,76.69816,0,0,0-11.59048,20.04692l9.76506,8.33348a65.01806,65.01806,0,0,0,0,39.21728l-9.76506,8.33337a76.70127,76.70127,0,0,0,11.5907,20.047l12.099-4.29a64.73691,64.73691,0,0,0,33.9473,19.60067l2.33858,12.64615a77.48367,77.48367,0,0,0,23.15018.00011l2.33858-12.64626a64.7344,64.7344,0,0,0,33.94752-19.60067l12.09924,4.29A76.71236,76.71236,0,0,0,309.39432,274.72771Z"
     id="path8"
     style="stroke:#ffffff;stroke-opacity:1" />
  <circle
     class="cls-1"
     cx="237.84341"
     cy="246.78565"
     r="21.50277"
     id="circle16"
     style="stroke:#ffffff;stroke-opacity:1" />
  <line
     class="cls-3"
     x1="331.89519"
     y1="194.14958"
     x2="388.67614"
     y2="161.36709"
     id="line40"
     style="stroke:#ffffff;stroke-opacity:1" />
  <g
     transform="matrix(0.5,0.8660254,0.8660254,-0.5,-98.09476,166.18148)"
     id="g1445"
     style="stroke:#ffffff">
    <line
       style="fill:none;stroke:#ffffff;stroke-width:3px;stroke-miterlimit:10;stroke-opacity:1"
       id="line1437"
       y2="97.056702"
       x2="237.84314"
       y1="154.15318"
       x1="237.84314"
       class="cls-1" />
    <polygon
       style="fill:#f9f9f9;fill-opacity:1;stroke:#ffffff;stroke-width:3px;stroke-miterlimit:10;stroke-opacity:1"
       id="polygon1439"
       points="237.843,10.879 188.165,39.56 188.165,96.923 237.843,125.605 287.521,96.923 287.521,39.56 "
       class="cls-2" />
    <polyline
       style="fill:none;stroke:#ffffff;stroke-width:3px;stroke-miterlimit:10;stroke-opacity:1"
       id="polyline1441"
       points="188.165 39.56 237.843 68.242 237.843 125.605"
       class="cls-1" />
    <line
       style="fill:none;stroke:#ffffff;stroke-width:3px;stroke-miterlimit:10;stroke-opacity:1"
       id="line1443"
       y2="39.560211"
       x2="287.52136"
       y1="68.241791"
       x1="237.84341"
       class="cls-1" />
  </g>
  <line
     style="fill:none;stroke:#ffffff;stroke-width:3px;stroke-miterlimit:10;stroke-dasharray:12, 6;stroke-opacity:1"
     id="line1447"
     y2="161.3671"
     x2="91.895203"
     y1="194.14958"
     x1="148.67615"
     class="cls-3" />
  <line
     class="cls-3"
     x1="238.01297"
     y1="410.78699"
     x2="238.01295"
     y2="345.22198"
     id="line1449"
     style="fill:none;stroke:#ffffff;stroke-width:3px;stroke-miterlimit:10;stroke-dasharray:12, 6;stroke-opacity:1" />
  <g
     style="stroke:#ffffff"
     id="g1459"
     transform="rotate(120,238.98746,248.76709)">
    <line
       class="cls-1"
       x1="237.84314"
       y1="154.15318"
       x2="237.84314"
       y2="97.056702"
       id="line1451"
       style="fill:none;stroke:#ffffff;stroke-width:3px;stroke-miterlimit:10;stroke-opacity:1" />
    <polygon
       class="cls-2"
       points="237.843,125.605 287.521,96.923 287.521,39.56 237.843,10.879 188.165,39.56 188.165,96.923 "
       id="polygon1453"
       style="fill:#f9f9f9;fill-opacity:1;stroke:#ffffff;stroke-width:3px;stroke-miterlimit:10;stroke-opacity:1" />
    <polyline
       class="cls-1"
       points="188.165 39.56 237.843 68.242 237.843 125.605"
       id="polyline1455"
       style="fill:none;stroke:#ffffff;stroke-width:3px;stroke-miterlimit:10;stroke-opacity:1" />
    <line
       class="cls-1"
       x1="237.84341"
       y1="68.241791"
       x2="287.52136"
       y2="39.560211"
       id="line1457"
       style="fill:none;stroke:#ffffff;stroke-width:3px;stroke-miterlimit:10;stroke-opacity:1" />
  </g>
  <g
     transform="translate(4.1430664e-4,-2.0922852e-4)"
     id="g1469"
     style="stroke:#ffffff">
    <line
       style="fill:none;stroke:#ffffff;stroke-width:3px;stroke-miterlimit:10;stroke-opacity:1"
       id="line1461"
       y2="97.056702"
       x2="237.84314"
       y1="154.15318"
       x1="237.84314"
       class="cls-1" />
    <polygon
       style="fill:#f9f9f9;fill-opacity:1;stroke:#ffffff;stroke-width:3px;stroke-miterlimit:10;stroke-opacity:1"
       id="polygon1463"
       points="237.843,125.605 287.521,96.923 287.521,39.56 237.843,10.879 188.165,39.56 188.165,96.923 "
       class="cls-2" />
    <polyline
       style="fill:none;stroke:#ffffff;stroke-width:3px;stroke-miterlimit:10;stroke-opacity:1"
       id="polyline1465"
       points="188.165 39.56 237.843 68.242 237.843 125.605"
       class="cls-1" />
    <line
       style="fill:none;stroke:#ffffff;stroke-width:3px;stroke-miterlimit:10;stroke-opacity:1"
       id="line1467"
       y2="39.560211"
       x2="287.52136"
       y1="68.241791"
       x1="237.84341"
       class="cls-1" />
  </g>
</svg>
