<?xml version="1.0" encoding="UTF-8" standalone="no"?>
<svg
   xmlns:dc="http://purl.org/dc/elements/1.1/"
   xmlns:cc="http://creativecommons.org/ns#"
   xmlns:rdf="http://www.w3.org/1999/02/22-rdf-syntax-ns#"
   xmlns:svg="http://www.w3.org/2000/svg"
   xmlns="http://www.w3.org/2000/svg"
   xmlns:xlink="http://www.w3.org/1999/xlink"
   xmlns:sodipodi="http://sodipodi.sourceforge.net/DTD/sodipodi-0.dtd"
   xmlns:inkscape="http://www.inkscape.org/namespaces/inkscape"
   height="64"
   viewBox="0 0 32 32"
   width="64"
   version="1.1"
   id="svg3222"
   sodipodi:docname="redis--white.svg"
   inkscape:version="0.92.4 (5da689c313, 2019-01-14)">
  <metadata
     id="metadata3226">
    <rdf:RDF>
      <cc:Work
         rdf:about="">
        <dc:format>image/svg+xml</dc:format>
        <dc:type
           rdf:resource="http://purl.org/dc/dcmitype/StillImage" />
        <dc:title></dc:title>
      </cc:Work>
    </rdf:RDF>
  </metadata>
  <sodipodi:namedview
     pagecolor="#ffffff"
     bordercolor="#666666"
     borderopacity="1"
     objecttolerance="10"
     gridtolerance="10"
     guidetolerance="10"
     inkscape:pageopacity="0"
     inkscape:pageshadow="2"
     inkscape:window-width="1920"
     inkscape:window-height="1057"
     id="namedview3224"
     showgrid="false"
     inkscape:zoom="7.375"
     inkscape:cx="35.769922"
     inkscape:cy="50.051116"
     inkscape:window-x="-8"
     inkscape:window-y="-8"
     inkscape:window-maximized="1"
     inkscape:current-layer="svg3222" />
  <use
     height="100%"
     width="100%"
     y="0"
     x="0"
     style="fill:#ececec;fill-opacity:1"
     id="use3194"
     xlink:href="#B"
     transform="matrix(0.848327,0,0,0.848327,-7.883573,-9.449691)" />
  <path
     style="fill:#ffffff;stroke-width:0.84832698;fill-opacity:1"
     inkscape:connector-curvature="0"
     id="path3196"
     d="m 30.745845,20.199338 c -1.707682,0.890743 -10.553188,4.527521 -12.436474,5.509035 -1.883285,0.981515 -2.929273,0.972183 -4.417238,0.261285 -1.487966,-0.710898 -10.9010022,-4.5131 -12.5976562,-5.3241 -1.69665399,-0.811001 -1.73058707,-1.368352 -0.065321,-2.020715 L 14.235705,13.589174 c 1.978299,-0.709202 2.663747,-0.7355 4.348524,-0.118766 1.684778,0.616734 10.476839,4.116082 12.13956,4.735361 1.662721,0.619279 1.728042,1.111309 0.02036,2.002052 z" />
  <use
     height="100%"
     width="100%"
     x="0"
     style="fill:#ececec;fill-opacity:1"
     id="use3198"
     y="-6.2179999"
     xlink:href="#B"
     transform="matrix(0.848327,0,0,0.848327,-7.883573,-9.449691)" />
  <use
     height="100%"
     width="100%"
     y="0"
     x="0"
     style="fill:#ffffff;fill-opacity:1"
     id="use3200"
     xlink:href="#C"
     transform="matrix(0.848327,0,0,0.848327,-7.883573,-9.449691)" />
  <path
     style="fill:#ececec;stroke-width:0.84832698;fill-opacity:1"
     inkscape:connector-curvature="0"
     id="path3202"
     d="m 30.745845,12.689947 c -1.707682,0.890743 -10.553188,4.527521 -12.436474,5.509884 -1.883285,0.982363 -2.929273,0.972183 -4.417238,0.261285 C 12.404167,17.750218 2.9911308,13.948016 1.2944768,13.137015 0.44614981,12.731515 0.00162647,12.390488 0.00162647,12.068123 V 8.8317559 c 0,0 12.25578053,-2.6679885 14.23492753,-3.3780382 C 16.2157,4.743668 16.9003,4.7182182 18.585078,5.334952 20.269855,5.9516857 30.336952,7.7679538 32.000521,8.3779009 V 11.56761 c 0,0.31982 -0.383444,0.678662 -1.252979,1.123185 z" />
  <use
     height="100%"
     width="100%"
     x="0"
     style="fill:#ffffff;fill-opacity:1"
     id="use3204"
     y="-6.4489999"
     xlink:href="#C"
     transform="matrix(0.848327,0,0,0.848327,-7.883573,-9.449691)" />
  <path
     style="fill:#f9f9f9;stroke-width:0.84832698"
     d="M 16.799349,8.1208578 15.796627,6.4538953 12.595041,6.1654641 14.98393,5.3035639 14.267093,3.9801737 l 2.23619,0.8737768 2.108941,-0.6905381 -0.570076,1.3675031 2.149661,0.8059106 -2.772333,0.2884312 z m -5.341066,3.3186552 7.414378,-1.138455 -2.239584,3.284722 z"
     id="path3206"
     inkscape:connector-curvature="0" />
  <ellipse
     style="fill:#f9f9f9;stroke-width:0.84832698"
     cx="9.4596243"
     rx="3.9633837"
     ry="1.5363202"
     cy="8.7062035"
     id="ellipse3208" />
  <path
     style="fill:#cccccc;stroke-width:0.84832698;fill-opacity:1"
     inkscape:connector-curvature="0"
     id="path3212"
     d="M 27.85814,8.4822451 23.47229,10.214529 23.46889,6.7474164 Z" />
  <path
     style="fill:#ececec;stroke-width:0.84832698;fill-opacity:1"
     inkscape:connector-curvature="0"
     id="path3214"
     d="M 23.473138,10.214529 22.998075,10.401161 18.615617,8.6688771 23.470593,6.7482647 Z" />
  <defs
     id="defs3220">
    <path
       id="B"
       d="M45.536 38.764c-2.013 1.05-12.44 5.337-14.66 6.494s-3.453 1.146-5.207.308-12.85-5.32-14.85-6.276c-1-.478-1.524-.88-1.524-1.26v-3.813s14.447-3.145 16.78-3.982 3.14-.867 5.126-.14 13.853 2.868 15.814 3.587v3.76c0 .377-.452.8-1.477 1.324z" />
    <path
       id="C"
       d="M45.536 28.733c-2.013 1.05-12.44 5.337-14.66 6.494s-3.453 1.146-5.207.308-12.85-5.32-14.85-6.276-2.04-1.613-.077-2.382l15.332-5.935c2.332-.837 3.14-.867 5.126-.14s12.35 4.853 14.312 5.57 2.037 1.31.024 2.36z" />
  </defs>
</svg>
