<?xml version="1.0" encoding="UTF-8" standalone="no"?>
<!-- Generator: Adobe Illustrator 23.0.2, SVG Export Plug-In . SVG Version: 6.00 Build 0)  -->

<svg
   xmlns:dc="http://purl.org/dc/elements/1.1/"
   xmlns:cc="http://creativecommons.org/ns#"
   xmlns:rdf="http://www.w3.org/1999/02/22-rdf-syntax-ns#"
   xmlns:svg="http://www.w3.org/2000/svg"
   xmlns="http://www.w3.org/2000/svg"
   xmlns:sodipodi="http://sodipodi.sourceforge.net/DTD/sodipodi-0.dtd"
   xmlns:inkscape="http://www.inkscape.org/namespaces/inkscape"
   version="1.1"
   id="Layer_1"
   x="0px"
   y="0px"
   viewBox="0 0 440.79999 372.89999"
   xml:space="preserve"
   sodipodi:docname="system-architecture.svg"
   width="440.79999"
   height="372.89999"
   inkscape:version="0.92.4 (5da689c313, 2019-01-14)"><metadata
   id="metadata529"><rdf:RDF><cc:Work
       rdf:about=""><dc:format>image/svg+xml</dc:format><dc:type
         rdf:resource="http://purl.org/dc/dcmitype/StillImage" /><dc:title></dc:title></cc:Work></rdf:RDF></metadata><defs
   id="defs527" /><sodipodi:namedview
   pagecolor="#ffffff"
   bordercolor="#666666"
   borderopacity="1"
   objecttolerance="10"
   gridtolerance="10"
   guidetolerance="10"
   inkscape:pageopacity="0"
   inkscape:pageshadow="2"
   inkscape:window-width="1920"
   inkscape:window-height="1057"
   id="namedview525"
   showgrid="false"
   fit-margin-top="0"
   fit-margin-left="0"
   fit-margin-right="0"
   fit-margin-bottom="0"
   inkscape:zoom="1.0436364"
   inkscape:cx="-19.510264"
   inkscape:cy="122.99881"
   inkscape:window-x="-8"
   inkscape:window-y="-8"
   inkscape:window-maximized="1"
   inkscape:current-layer="Layer_1" />
<style
   type="text/css"
   id="style2">
	.st0{fill:#084960;}
	.st1{opacity:0.3;fill:#FFFFFF;}
	.st2{fill:none;stroke:#FFEFB0;stroke-width:0.4992;stroke-linecap:round;stroke-linejoin:round;stroke-miterlimit:10;}
	.st3{fill:#624C8A;}
	.st4{fill:#8F6FC9;}
	
		.st5{opacity:0.46;fill:none;stroke:#FFFFFF;stroke-width:1.4297;stroke-linecap:round;stroke-linejoin:round;stroke-miterlimit:10;}
	.st6{fill:none;}
	.st7{fill:#D5E6F0;}
	.st8{fill:#FFFFFF;}
	.st9{fill:#FFEFB0;}
	.st10{opacity:0.87;fill:#FFEFB0;}
	.st11{fill:#80A880;}
	.st12{fill:none;stroke:#FFFFFF;stroke-width:0.4992;stroke-miterlimit:10;}
	.st13{fill:#8FB4C9;}
	.st14{fill:#F1F1F1;}
	.st15{fill:#808080;}
	.st16{fill:#A4CDE7;}
	.st17{fill:#E5E5E5;}
	.st18{fill:#2C528F;}
	.st19{fill:#C2FFC2;}
	.st20{fill:#FE168D;}
	.st21{fill:#00FFFF;}
	.st22{fill:#FFE068;}
	.st23{opacity:0.2;fill:#FFFFFF;}
	.st24{fill:#528AA8;}
	.st25{fill:#79A3BA;}
	.st26{fill:none;stroke:#FFEFB0;stroke-width:1.2268;stroke-linecap:round;stroke-linejoin:round;stroke-miterlimit:10;}
	
		.st27{opacity:0.46;fill:none;stroke:#FFFFFF;stroke-width:3.5135;stroke-linecap:round;stroke-linejoin:round;stroke-miterlimit:10;}
	.st28{fill:none;stroke:#FFFFFF;stroke-width:1.2268;stroke-miterlimit:10;}
</style>

<g
   id="g522"
   transform="translate(-316.3,-97.9)">
	<path
   class="st1"
   d="m 427.8,231.4 h -31.7 c -2.2,0 -4,-1.8 -4,-4 v 0 c 0,-2.2 1.8,-4 4,-4 h 31.7 c 2.2,0 4,1.8 4,4 v 0 c 0,2.3 -1.8,4 -4,4 z"
   id="path6"
   inkscape:connector-curvature="0"
   style="opacity:0.3;fill:#ffffff" />
	<path
   class="st1"
   d="m 427.8,189.8 v 0 c 0,-2.2 -1.8,-4 -4,-4 h -31.7 c -2.2,0 -4,1.8 -4,4 v 0 c 0,2.2 1.8,4 4,4 h 2.5 c 1.2,0 2.2,1 2.2,2.2 v 0.1 c 0,1.2 -1,2.2 -2.2,2.2 h -6 c -2.2,0 -4,1.8 -4,4 v 0 c 0,2.2 1.8,4 4,4 h 31.7 c 2.2,0 4,-1.8 4,-4 v 0 c 0,-2.2 -1.8,-4 -4,-4 h -3.7 c -1.2,0 -2.2,-1 -2.2,-2.2 V 196 c 0,-1.2 1,-2.2 2.2,-2.2 h 7.2 c 2.2,0 4,-1.8 4,-4 z"
   id="path8"
   inkscape:connector-curvature="0"
   style="opacity:0.3;fill:#ffffff" />
	<g
   id="g18">
		<path
   class="st26"
   d="m 725.7,144.5 c 0,2.7 -2.2,4.8 -4.8,4.8"
   id="path10"
   inkscape:connector-curvature="0"
   style="fill:none;stroke:#ffefb0;stroke-width:1.22679996;stroke-linecap:round;stroke-linejoin:round;stroke-miterlimit:10" />
		<path
   class="st26"
   d="m 725.7,144.5 c 0,2.7 2.2,4.8 4.8,4.8"
   id="path12"
   inkscape:connector-curvature="0"
   style="fill:none;stroke:#ffefb0;stroke-width:1.22679996;stroke-linecap:round;stroke-linejoin:round;stroke-miterlimit:10" />
		<path
   class="st26"
   d="m 725.7,154.2 c 0,-2.7 -2.2,-4.8 -4.8,-4.8"
   id="path14"
   inkscape:connector-curvature="0"
   style="fill:none;stroke:#ffefb0;stroke-width:1.22679996;stroke-linecap:round;stroke-linejoin:round;stroke-miterlimit:10" />
		<path
   class="st26"
   d="m 725.7,154.2 c 0,-2.7 2.2,-4.8 4.8,-4.8"
   id="path16"
   inkscape:connector-curvature="0"
   style="fill:none;stroke:#ffefb0;stroke-width:1.22679996;stroke-linecap:round;stroke-linejoin:round;stroke-miterlimit:10" />
	</g>
	<g
   id="g28">
		<path
   class="st26"
   d="m 388,241.4 c 0,2.7 -2.2,4.8 -4.8,4.8"
   id="path20"
   inkscape:connector-curvature="0"
   style="fill:none;stroke:#ffefb0;stroke-width:1.22679996;stroke-linecap:round;stroke-linejoin:round;stroke-miterlimit:10" />
		<path
   class="st26"
   d="m 388,241.4 c 0,2.7 2.2,4.8 4.8,4.8"
   id="path22"
   inkscape:connector-curvature="0"
   style="fill:none;stroke:#ffefb0;stroke-width:1.22679996;stroke-linecap:round;stroke-linejoin:round;stroke-miterlimit:10" />
		<path
   class="st26"
   d="m 388,251.1 c 0,-2.7 -2.2,-4.8 -4.8,-4.8"
   id="path24"
   inkscape:connector-curvature="0"
   style="fill:none;stroke:#ffefb0;stroke-width:1.22679996;stroke-linecap:round;stroke-linejoin:round;stroke-miterlimit:10" />
		<path
   class="st26"
   d="m 388,251.1 c 0,-2.7 2.2,-4.8 4.8,-4.8"
   id="path26"
   inkscape:connector-curvature="0"
   style="fill:none;stroke:#ffefb0;stroke-width:1.22679996;stroke-linecap:round;stroke-linejoin:round;stroke-miterlimit:10" />
	</g>
	<g
   id="g38">
		<path
   class="st26"
   d="m 655.8,141.3 c 0,2.7 -2.2,4.8 -4.8,4.8"
   id="path30"
   inkscape:connector-curvature="0"
   style="fill:none;stroke:#ffefb0;stroke-width:1.22679996;stroke-linecap:round;stroke-linejoin:round;stroke-miterlimit:10" />
		<path
   class="st26"
   d="m 655.8,141.3 c 0,2.7 2.2,4.8 4.8,4.8"
   id="path32"
   inkscape:connector-curvature="0"
   style="fill:none;stroke:#ffefb0;stroke-width:1.22679996;stroke-linecap:round;stroke-linejoin:round;stroke-miterlimit:10" />
		<path
   class="st26"
   d="m 655.8,151.1 c 0,-2.7 -2.2,-4.8 -4.8,-4.8"
   id="path34"
   inkscape:connector-curvature="0"
   style="fill:none;stroke:#ffefb0;stroke-width:1.22679996;stroke-linecap:round;stroke-linejoin:round;stroke-miterlimit:10" />
		<path
   class="st26"
   d="m 655.8,151.1 c 0,-2.7 2.2,-4.8 4.8,-4.8"
   id="path36"
   inkscape:connector-curvature="0"
   style="fill:none;stroke:#ffefb0;stroke-width:1.22679996;stroke-linecap:round;stroke-linejoin:round;stroke-miterlimit:10" />
	</g>
	<g
   id="g48">
		<path
   class="st26"
   d="m 364.1,197.2 c 0,2.7 -2.2,4.8 -4.8,4.8"
   id="path40"
   inkscape:connector-curvature="0"
   style="fill:none;stroke:#ffefb0;stroke-width:1.22679996;stroke-linecap:round;stroke-linejoin:round;stroke-miterlimit:10" />
		<path
   class="st26"
   d="m 364.1,197.2 c 0,2.7 2.2,4.8 4.8,4.8"
   id="path42"
   inkscape:connector-curvature="0"
   style="fill:none;stroke:#ffefb0;stroke-width:1.22679996;stroke-linecap:round;stroke-linejoin:round;stroke-miterlimit:10" />
		<path
   class="st26"
   d="m 364.1,207 c 0,-2.7 -2.2,-4.8 -4.8,-4.8"
   id="path44"
   inkscape:connector-curvature="0"
   style="fill:none;stroke:#ffefb0;stroke-width:1.22679996;stroke-linecap:round;stroke-linejoin:round;stroke-miterlimit:10" />
		<path
   class="st26"
   d="m 364.1,207 c 0,-2.7 2.2,-4.8 4.8,-4.8"
   id="path46"
   inkscape:connector-curvature="0"
   style="fill:none;stroke:#ffefb0;stroke-width:1.22679996;stroke-linecap:round;stroke-linejoin:round;stroke-miterlimit:10" />
	</g>
	<g
   id="g58">
		<path
   class="st26"
   d="m 457,163 c 0,2.7 -2.2,4.8 -4.8,4.8"
   id="path50"
   inkscape:connector-curvature="0"
   style="fill:none;stroke:#ffefb0;stroke-width:1.22679996;stroke-linecap:round;stroke-linejoin:round;stroke-miterlimit:10" />
		<path
   class="st26"
   d="m 457,163 c 0,2.7 2.2,4.8 4.8,4.8"
   id="path52"
   inkscape:connector-curvature="0"
   style="fill:none;stroke:#ffefb0;stroke-width:1.22679996;stroke-linecap:round;stroke-linejoin:round;stroke-miterlimit:10" />
		<path
   class="st26"
   d="m 457,172.8 c 0,-2.7 -2.2,-4.8 -4.8,-4.8"
   id="path54"
   inkscape:connector-curvature="0"
   style="fill:none;stroke:#ffefb0;stroke-width:1.22679996;stroke-linecap:round;stroke-linejoin:round;stroke-miterlimit:10" />
		<path
   class="st26"
   d="m 457,172.8 c 0,-2.7 2.2,-4.8 4.8,-4.8"
   id="path56"
   inkscape:connector-curvature="0"
   style="fill:none;stroke:#ffefb0;stroke-width:1.22679996;stroke-linecap:round;stroke-linejoin:round;stroke-miterlimit:10" />
	</g>
	<g
   id="g68">
		<path
   class="st26"
   d="m 688.8,119.5 c 0,2.7 -2.2,4.8 -4.8,4.8"
   id="path60"
   inkscape:connector-curvature="0"
   style="fill:none;stroke:#ffefb0;stroke-width:1.22679996;stroke-linecap:round;stroke-linejoin:round;stroke-miterlimit:10" />
		<path
   class="st26"
   d="m 688.8,119.5 c 0,2.7 2.2,4.8 4.8,4.8"
   id="path62"
   inkscape:connector-curvature="0"
   style="fill:none;stroke:#ffefb0;stroke-width:1.22679996;stroke-linecap:round;stroke-linejoin:round;stroke-miterlimit:10" />
		<path
   class="st26"
   d="m 688.8,129.2 c 0,-2.7 -2.2,-4.8 -4.8,-4.8"
   id="path64"
   inkscape:connector-curvature="0"
   style="fill:none;stroke:#ffefb0;stroke-width:1.22679996;stroke-linecap:round;stroke-linejoin:round;stroke-miterlimit:10" />
		<path
   class="st26"
   d="m 688.8,129.2 c 0,-2.7 2.2,-4.8 4.8,-4.8"
   id="path66"
   inkscape:connector-curvature="0"
   style="fill:none;stroke:#ffefb0;stroke-width:1.22679996;stroke-linecap:round;stroke-linejoin:round;stroke-miterlimit:10" />
	</g>
	<path
   class="st3"
   d="m 705.4,434.3 v 0 c 0,-4 3.3,-7.3 7.3,-7.3 h 6.6 c 5.1,0 9.2,-4.1 9.2,-9.2 v 0 c 0,-5.1 -4.1,-9.2 -9.2,-9.2 h -30.2 c -4,0 -7.3,-3.3 -7.3,-7.3 v 0 c 0,-4 3.3,-7.3 7.3,-7.3 h 7 c 5.1,0 9.2,-4.1 9.2,-9.2 v 0 c 0,-5.1 -4.1,-9.2 -9.2,-9.2 h -323 c -5.1,0 -9.2,4.1 -9.2,9.2 v 0 c 0,5.1 4.1,9.2 9.2,9.2 h 9.6 c 4,0 7.3,3.3 7.3,7.3 v 0 c 0,4 -3.3,7.3 -7.3,7.3 h -41 c -5.1,0 -9.2,4.1 -9.2,9.2 v 0 c 0,5.1 4.1,9.2 9.2,9.2 h 68.8 c 4,0 7.3,3.3 7.3,7.3 v 0 c 0,4 -3.3,7.3 -7.3,7.3 h -44 c -5.1,0 -9.2,4.1 -9.2,9.2 v 0 c 0,5.1 4.1,9.2 9.2,9.2 h 372.4 c 5.1,0 9.2,-4.1 9.2,-9.2 v 0 c 0,-5.1 -4.1,-9.2 -9.2,-9.2 h -26.1 c -4.1,0 -7.4,-3.3 -7.4,-7.3 z"
   id="path70"
   inkscape:connector-curvature="0"
   style="fill:#624c8a" />
	<g
   id="g98">
		<g
   id="g74">
			<path
   class="st4"
   d="M 463.2,412.5 H 428 c -2.4,0 -4.3,-1.9 -4.3,-4.3 0,-2.4 1.9,-4.3 4.3,-4.3 h 35.2 c 2.4,0 4.3,1.9 4.3,4.3 -0.1,2.4 -2,4.3 -4.3,4.3 z"
   id="path72"
   inkscape:connector-curvature="0"
   style="fill:#8f6fc9" />
		</g>
		<path
   class="st4"
   d="m 484.3,412.5 h -5.2 c -2.4,0 -4.3,-1.9 -4.3,-4.3 v 0 c 0,-2.4 1.9,-4.3 4.3,-4.3 h 5.2 c 2.4,0 4.3,1.9 4.3,4.3 v 0 c 0,2.4 -1.9,4.3 -4.3,4.3 z"
   id="path76"
   inkscape:connector-curvature="0"
   style="fill:#8f6fc9" />
		<path
   class="st4"
   d="m 504.6,412.5 h -5.2 c -2.4,0 -4.3,-1.9 -4.3,-4.3 v 0 c 0,-2.4 1.9,-4.3 4.3,-4.3 h 5.2 c 2.4,0 4.3,1.9 4.3,4.3 v 0 c -0.1,2.4 -2,4.3 -4.3,4.3 z"
   id="path78"
   inkscape:connector-curvature="0"
   style="fill:#8f6fc9" />
		<g
   id="g82">
			<path
   class="st4"
   d="M 463.2,444.4 H 428 c -2.4,0 -4.3,-1.9 -4.3,-4.3 0,-2.4 1.9,-4.3 4.3,-4.3 h 35.2 c 2.4,0 4.3,1.9 4.3,4.3 -0.1,2.4 -2,4.3 -4.3,4.3 z"
   id="path80"
   inkscape:connector-curvature="0"
   style="fill:#8f6fc9" />
		</g>
		<path
   class="st4"
   d="m 484.3,444.4 h -5.2 c -2.4,0 -4.3,-1.9 -4.3,-4.3 v 0 c 0,-2.4 1.9,-4.3 4.3,-4.3 h 5.2 c 2.4,0 4.3,1.9 4.3,4.3 v 0 c 0,2.4 -1.9,4.3 -4.3,4.3 z"
   id="path84"
   inkscape:connector-curvature="0"
   style="fill:#8f6fc9" />
		<path
   class="st4"
   d="m 504.6,444.4 h -5.2 c -2.4,0 -4.3,-1.9 -4.3,-4.3 v 0 c 0,-2.4 1.9,-4.3 4.3,-4.3 h 5.2 c 2.4,0 4.3,1.9 4.3,4.3 v 0 c -0.1,2.4 -2,4.3 -4.3,4.3 z"
   id="path86"
   inkscape:connector-curvature="0"
   style="fill:#8f6fc9" />
		<path
   class="st4"
   d="M 538.2,444.4 H 533 c -2.4,0 -4.3,-1.9 -4.3,-4.3 v 0 c 0,-2.4 1.9,-4.3 4.3,-4.3 h 5.2 c 2.4,0 4.3,1.9 4.3,4.3 v 0 c -0.1,2.4 -2,4.3 -4.3,4.3 z"
   id="path88"
   inkscape:connector-curvature="0"
   style="fill:#8f6fc9" />
		<g
   id="g92">
			<path
   class="st4"
   d="m 474.6,428.5 h -35.2 c -2.4,0 -4.3,-1.9 -4.3,-4.3 0,-2.4 1.9,-4.3 4.3,-4.3 h 35.2 c 2.4,0 4.3,1.9 4.3,4.3 -0.1,2.4 -2,4.3 -4.3,4.3 z"
   id="path90"
   inkscape:connector-curvature="0"
   style="fill:#8f6fc9" />
		</g>
		<path
   class="st4"
   d="m 495.7,428.5 h -5.2 c -2.4,0 -4.3,-1.9 -4.3,-4.3 v 0 c 0,-2.4 1.9,-4.3 4.3,-4.3 h 5.2 c 2.4,0 4.3,1.9 4.3,4.3 v 0 c 0,2.4 -1.9,4.3 -4.3,4.3 z"
   id="path94"
   inkscape:connector-curvature="0"
   style="fill:#8f6fc9" />
		<path
   class="st4"
   d="m 516,428.5 h -5.2 c -2.4,0 -4.3,-1.9 -4.3,-4.3 v 0 c 0,-2.4 1.9,-4.3 4.3,-4.3 h 5.2 c 2.4,0 4.3,1.9 4.3,4.3 v 0 c -0.1,2.4 -2,4.3 -4.3,4.3 z"
   id="path96"
   inkscape:connector-curvature="0"
   style="fill:#8f6fc9" />
	</g>
	<g
   id="g112">
		<path
   class="st27"
   d="m 381.4,376.1 c 0,-6.6 3.2,-6.6 3.2,-13.2 0,-6.6 -3.2,-6.6 -3.2,-13.2 0,-6.6 3.2,-6.6 3.2,-13.2 0,-6.6 -3.2,-6.6 -3.2,-13.2"
   id="path100"
   inkscape:connector-curvature="0"
   style="opacity:0.46000001;fill:none;stroke:#ffffff;stroke-width:3.51349998;stroke-linecap:round;stroke-linejoin:round;stroke-miterlimit:10" />
		<path
   class="st27"
   d="m 392.1,353.7 c 0,-7.6 3.6,-7.6 3.6,-15.2 0,-7.6 -3.6,-7.6 -3.6,-15.2 0,-7.6 3.6,-7.6 3.6,-15.2 0,-7.6 -3.6,-7.6 -3.6,-15.2"
   id="path102"
   inkscape:connector-curvature="0"
   style="opacity:0.46000001;fill:none;stroke:#ffffff;stroke-width:3.51349998;stroke-linecap:round;stroke-linejoin:round;stroke-miterlimit:10" />
		<g
   id="g110">
			<path
   class="st6"
   d="m 348.7,387.6 c 0,4.4 3.6,8 8,8 2.2,0 4.2,-0.9 5.6,-2.3 v -11.4 c -1.5,-1.4 -3.4,-2.3 -5.6,-2.3 -4.4,0 -8,3.6 -8,8 z"
   id="path104"
   inkscape:connector-curvature="0"
   style="fill:none" />
			<path
   class="st7"
   d="m 362.4,368.9 v 8.7 c -1.7,-0.9 -3.6,-1.5 -5.6,-1.5 -6.4,0 -11.5,5.2 -11.5,11.6 0,6.4 5.2,11.5 11.5,11.5 2,0 4,-0.5 5.6,-1.5 v 19.7 c 0,1.6 1.3,2.9 2.9,2.9 H 383 V 369 h -20.6 z m 0,24.4 c -1.5,1.4 -3.4,2.3 -5.6,2.3 -4.4,0 -8,-3.6 -8,-8 0,-4.4 3.6,-8 8,-8 2.2,0 4.2,0.9 5.6,2.3 z"
   id="path106"
   inkscape:connector-curvature="0"
   style="fill:#d5e6f0" />
			<path
   class="st8"
   d="m 383,368.9 v 51.3 h 20.3 c 1.6,0 2.9,-1.3 2.9,-2.9 V 368.8 H 383 Z"
   id="path108"
   inkscape:connector-curvature="0"
   style="fill:#ffffff" />
		</g>
	</g>
	<path
   class="st1"
   d="m 729,146.2 h -31.7 c -2.2,0 -4,-1.8 -4,-4 v 0 c 0,-2.2 1.8,-4 4,-4 H 729 c 2.2,0 4,1.8 4,4 v 0 c 0,2.2 -1.8,4 -4,4 z"
   id="path114"
   inkscape:connector-curvature="0"
   style="opacity:0.3;fill:#ffffff" />
	<path
   class="st1"
   d="m 739.1,192.1 h -31.7 c -2.2,0 -4,-1.8 -4,-4 v 0 c 0,-2.2 1.8,-4 4,-4 h 31.7 c 2.2,0 4,1.8 4,4 v 0 c 0,2.2 -1.8,4 -4,4 z"
   id="path116"
   inkscape:connector-curvature="0"
   style="opacity:0.3;fill:#ffffff" />
	<path
   class="st1"
   d="m 656.4,165.7 h -18.9 c -2.2,0 -4,-1.8 -4,-4 v 0 c 0,-2.2 1.8,-4 4,-4 h 18.9 c 2.2,0 4,1.8 4,4 v 0 c -0.1,2.2 -1.8,4 -4,4 z"
   id="path118"
   inkscape:connector-curvature="0"
   style="opacity:0.3;fill:#ffffff" />
	<path
   class="st1"
   d="m 368.1,231.4 h -18.9 c -2.2,0 -4,-1.8 -4,-4 v 0 c 0,-2.2 1.8,-4 4,-4 h 18.9 c 2.2,0 4,1.8 4,4 v 0 c 0,2.3 -1.8,4 -4,4 z"
   id="path120"
   inkscape:connector-curvature="0"
   style="opacity:0.3;fill:#ffffff" />
	<path
   class="st1"
   d="m 712.8,161.7 v 0 c 0,-2.2 -1.8,-4 -4,-4 h -31.7 c -2.2,0 -4,1.8 -4,4 v 0 c 0,2.2 1.8,4 4,4 h 2.5 c 1.2,0 2.2,1 2.2,2.2 v 0.1 c 0,1.2 -1,2.2 -2.2,2.2 h -6 c -2.2,0 -4,1.8 -4,4 v 0 c 0,2.2 1.8,4 4,4 h 31.7 c 2.2,0 4,-1.8 4,-4 v 0 c 0,-2.2 -1.8,-4 -4,-4 h -3.7 c -1.2,0 -2.2,-1 -2.2,-2.2 v -0.1 c 0,-1.2 1,-2.2 2.2,-2.2 h 7.2 c 2.2,0 4,-1.8 4,-4 z"
   id="path122"
   inkscape:connector-curvature="0"
   style="opacity:0.3;fill:#ffffff" />
	<g
   id="g130">
		<path
   class="st9"
   d="m 685.4,196.9 h 16.1 c 4.1,0 7.5,-3.4 7.5,-7.5 v 0 c 0,-4.1 -3.4,-7.5 -7.5,-7.5 h -16.1 c -4.1,0 -7.5,3.4 -7.5,7.5 v 0 c 0,4.1 3.3,7.5 7.5,7.5 z"
   id="path124"
   inkscape:connector-curvature="0"
   style="fill:#ffefb0" />
		<circle
   class="st9"
   cx="695.20001"
   cy="181.89999"
   r="7.0999999"
   id="circle126"
   style="fill:#ffefb0" />
		<circle
   class="st9"
   cx="687.40002"
   cy="181.39999"
   r="4.1999998"
   id="circle128"
   style="fill:#ffefb0" />
	</g>
	<g
   id="g140">
		<path
   class="st10"
   d="m 444.7,132.5 c 0.1,-0.4 0.1,-0.9 0.1,-1.3 0,-3.8 -3.1,-6.8 -6.8,-6.8 -1.2,0 -2.3,0.3 -3.2,0.8 -2.1,-2.9 -5.5,-4.8 -9.4,-4.8 -6.4,0 -11.7,5.2 -11.7,11.7 0,0 0,0.1 0,0.1 -6.1,0.7 -10.9,5.9 -10.9,12.2 v 0 c 0,6.8 5.5,12.3 12.3,12.3 h 26.3 c 6.8,0 12.3,-5.5 12.3,-12.3 v 0 c 0,-5.7 -3.8,-10.4 -9,-11.9 z"
   id="path132"
   inkscape:connector-curvature="0"
   style="opacity:0.87000002;fill:#ffefb0" />
		<g
   id="g138">
			<path
   class="st4"
   d="m 423.4,143.8 0.2,3.2 c 0.1,1.7 0.6,2.2 1.7,2.2 h 0.5 V 152 H 424 c -2,0 -3.3,-1.1 -3.5,-3.5 l -0.3,-4.2 c -0.1,-1.5 -0.4,-1.9 -1.7,-1.9 v -2.8 c 1.3,0 1.6,-0.4 1.7,-1.9 l 0.3,-4.2 c 0.2,-2.4 1.5,-3.5 3.5,-3.5 h 1.8 v 2.8 h -0.5 c -1.1,0 -1.6,0.5 -1.7,2.2 l -0.2,3.2 c -0.1,1.2 -0.4,2.4 -2.1,2.8 1.7,0.4 2,1.6 2.1,2.8 z"
   id="path134"
   inkscape:connector-curvature="0"
   style="fill:#8f6fc9" />
			<path
   class="st4"
   d="m 433.1,138.2 -0.2,-3.2 c -0.1,-1.7 -0.6,-2.2 -1.7,-2.2 h -0.5 V 130 h 1.8 c 2,0 3.3,1.1 3.5,3.5 l 0.3,4.2 c 0.1,1.5 0.4,1.9 1.7,1.9 v 2.8 c -1.3,0 -1.6,0.4 -1.7,1.9 l -0.3,4.2 c -0.2,2.4 -1.5,3.5 -3.5,3.5 h -1.8 v -2.8 h 0.5 c 1.1,0 1.6,-0.5 1.7,-2.2 l 0.2,-3.2 c 0.1,-1.2 0.4,-2.4 2.1,-2.8 -1.7,-0.4 -2.1,-1.7 -2.1,-2.8 z"
   id="path136"
   inkscape:connector-curvature="0"
   style="fill:#8f6fc9" />
		</g>
	</g>
	<g
   id="g146">
		<path
   class="st10"
   d="m 581.7,141 c 0.1,-0.4 0.1,-0.9 0.1,-1.3 0,-3.8 -3.1,-6.8 -6.8,-6.8 -1.2,0 -2.3,0.3 -3.2,0.8 -2.1,-2.9 -5.5,-4.8 -9.4,-4.8 -6.4,0 -11.7,5.2 -11.7,11.7 0,0 0,0.1 0,0.1 -6.1,0.7 -10.9,5.9 -10.9,12.2 v 0 c 0,6.8 5.5,12.3 12.3,12.3 h 26.3 c 6.8,0 12.3,-5.5 12.3,-12.3 v 0 c 0,-5.8 -3.8,-10.5 -9,-11.9 z"
   id="path142"
   inkscape:connector-curvature="0"
   style="opacity:0.87000002;fill:#ffefb0" />
		<path
   class="st4"
   d="m 566.4,135.6 c -4.9,-0.6 -9.3,2.8 -10,7.7 -0.6,4.3 2.1,8.3 6.1,9.6 l -0.1,1 c 0,0.3 0.2,0.6 0.5,0.7 l -0.6,4.3 h -0.2 c -0.2,0 -0.4,0.1 -0.4,0.2 l -1.5,11.5 c 0,0.2 0.1,0.3 0.4,0.4 h -0.1 l -0.1,0.5 c 0,0.1 0.1,0.2 0.3,0.3 l 0.7,0.1 0.7,0.1 c 0.2,0 0.3,-0.1 0.3,-0.2 l 0.1,-0.5 h -0.1 c 0.2,0 0.4,-0.1 0.5,-0.3 l 1.5,-11.5 c 0,-0.2 -0.1,-0.3 -0.3,-0.3 h -0.2 l 0.6,-4.3 c 0.3,0 0.6,-0.2 0.6,-0.6 l 0.1,-1 c 4.4,0 8.2,-3.3 8.8,-7.8 0.7,-4.8 -2.7,-9.2 -7.6,-9.9 z m -2,15.6 c -1.3,-0.2 -2.5,-0.7 -3.4,-1.5 -1.2,-1 -2.1,-2.4 -2.4,-4 -0.1,-0.7 -0.2,-1.4 -0.1,-2.1 0.5,-3.7 3.9,-6.3 7.6,-5.9 0.7,0.1 1.4,0.3 2.1,0.6 1.4,0.7 2.6,1.9 3.2,3.3 0.5,1.1 0.7,2.4 0.6,3.7 -0.5,3.8 -3.9,6.4 -7.6,5.9 z"
   id="path144"
   inkscape:connector-curvature="0"
   style="fill:#8f6fc9" />
	</g>
	<g
   id="g158">
		<path
   class="st10"
   d="m 372.7,260.8 c 0.1,-0.4 0.1,-0.9 0.1,-1.3 0,-3.8 -3.1,-6.8 -6.8,-6.8 -1.2,0 -2.3,0.3 -3.2,0.8 -2.1,-2.9 -5.5,-4.8 -9.4,-4.8 -6.4,0 -11.7,5.2 -11.7,11.7 0,0 0,0.1 0,0.1 -6.1,0.7 -10.9,5.9 -10.9,12.2 v 0 c 0,6.8 5.5,12.3 12.3,12.3 h 26.3 c 6.8,0 12.3,-5.5 12.3,-12.3 v 0 c 0,-5.7 -3.9,-10.4 -9,-11.9 z"
   id="path148"
   inkscape:connector-curvature="0"
   style="opacity:0.87000002;fill:#ffefb0" />
		<g
   id="g156">
			<path
   class="st4"
   d="m 362.9,277 v -2.7 l 7.6,-2.7 -7.6,-2.7 v -2.7 l 11.1,4.1 v 2.6 z"
   id="path150"
   inkscape:connector-curvature="0"
   style="fill:#8f6fc9" />
			<path
   class="st4"
   d="m 336.8,272.9 v -2.6 l 11.1,-4.1 v 2.7 l -7.6,2.7 7.6,2.7 v 2.7 z"
   id="path152"
   inkscape:connector-curvature="0"
   style="fill:#8f6fc9" />
			<path
   class="st4"
   d="m 358.2,263.4 h 2.3 l -6.7,17.1 h -2.3 z"
   id="path154"
   inkscape:connector-curvature="0"
   style="fill:#8f6fc9" />
		</g>
	</g>
	<g
   id="g166">
		<path
   class="st4"
   d="m 624,140.6 v -2.7 l 7.6,-2.7 -7.6,-2.7 v -2.7 l 11.1,4.1 v 2.6 z"
   id="path160"
   inkscape:connector-curvature="0"
   style="fill:#8f6fc9" />
		<path
   class="st4"
   d="m 597.9,136.5 v -2.6 l 11.1,-4.1 v 2.7 l -7.6,2.7 7.6,2.7 v 2.7 z"
   id="path162"
   inkscape:connector-curvature="0"
   style="fill:#8f6fc9" />
		<path
   class="st4"
   d="m 619.3,127 h 2.3 l -6.7,17.1 h -2.3 z"
   id="path164"
   inkscape:connector-curvature="0"
   style="fill:#8f6fc9" />
	</g>
	<g
   id="g174">
		<path
   class="st11"
   d="m 506.3,141.9 2.6,2.6 c 2.4,-2.4 6.3,-2.5 8.6,-0.2 l 0.7,-0.7 2,-2 c -1.8,-1.8 -4.3,-2.7 -6.7,-2.7 -2.6,0 -5.2,1 -7.2,3 z"
   id="path168"
   inkscape:connector-curvature="0"
   style="fill:#80a880" />
		<path
   class="st11"
   d="m 508.4,133.8 c -2.3,0.8 -4.4,2.1 -6.2,4 l 2.6,2.6 c 1.9,-1.9 4.2,-3.1 6.6,-3.6 3.8,-0.7 7.7,0.3 10.5,3.1 l 2.7,-2.7 c -4.3,-4.4 -10.6,-5.4 -16.2,-3.4 z"
   id="path170"
   inkscape:connector-curvature="0"
   style="fill:#80a880" />
		<path
   class="st11"
   d="m 510.6,146.2 2.5,2.5 2.6,-2.6 c -1.4,-1.5 -3.7,-1.4 -5.1,0.1 z"
   id="path172"
   inkscape:connector-curvature="0"
   style="fill:#80a880" />
	</g>
	<g
   id="g182">
		<path
   class="st4"
   d="m 341.7,185.4 2.6,2.6 c 2.4,-2.4 6.3,-2.5 8.6,-0.2 l 0.7,-0.7 2,-2 c -1.8,-1.8 -4.3,-2.7 -6.7,-2.7 -2.7,-0.1 -5.2,1 -7.2,3 z"
   id="path176"
   inkscape:connector-curvature="0"
   style="fill:#8f6fc9" />
		<path
   class="st4"
   d="m 343.7,177.2 c -2.3,0.8 -4.4,2.1 -6.2,4 l 2.6,2.6 c 1.9,-1.9 4.2,-3.1 6.6,-3.6 3.8,-0.7 7.7,0.3 10.5,3.1 l 2.7,-2.7 c -4.2,-4.3 -10.6,-5.4 -16.2,-3.4 z"
   id="path178"
   inkscape:connector-curvature="0"
   style="fill:#8f6fc9" />
		<path
   class="st4"
   d="m 345.9,189.6 2.5,2.5 2.6,-2.6 c -1.3,-1.4 -3.6,-1.4 -5.1,0.1 z"
   id="path180"
   inkscape:connector-curvature="0"
   style="fill:#8f6fc9" />
	</g>
	<g
   id="g190">
		<g
   id="g186">
			<path
   class="st4"
   d="m 456.5,130.6 c -0.3,0 -0.6,-0.3 -0.6,-0.6 0,-0.6 0,-1.3 0.1,-1.9 0,-0.3 0.3,-0.6 0.6,-0.6 0.3,0 0.6,0.3 0.6,0.6 0,0.6 -0.1,1.2 -0.1,1.8 0,0.4 -0.3,0.7 -0.6,0.7 z m 0.4,-5.5 c 0,0 -0.1,0 -0.1,0 -0.3,-0.1 -0.6,-0.4 -0.5,-0.7 0.1,-0.6 0.2,-1.2 0.4,-1.8 0.1,-0.3 0.4,-0.5 0.7,-0.5 0.3,0.1 0.5,0.4 0.5,0.7 -0.1,0.6 -0.3,1.2 -0.4,1.8 0,0.3 -0.3,0.5 -0.6,0.5 z m 1.5,-5.3 c -0.1,0 -0.1,0 -0.2,0 -0.3,-0.1 -0.5,-0.5 -0.4,-0.8 0.2,-0.6 0.4,-1.2 0.7,-1.7 0.1,-0.3 0.5,-0.5 0.8,-0.3 0.3,0.1 0.5,0.5 0.3,0.8 -0.2,0.6 -0.5,1.1 -0.7,1.7 0,0.1 -0.3,0.3 -0.5,0.3 z m 2.3,-5 c -0.1,0 -0.2,0 -0.3,-0.1 -0.3,-0.2 -0.4,-0.5 -0.2,-0.8 0.3,-0.5 0.6,-1.1 1,-1.6 0.2,-0.3 0.6,-0.4 0.8,-0.2 0.3,0.2 0.4,0.6 0.2,0.9 -0.3,0.5 -0.6,1 -1,1.5 -0.1,0.2 -0.3,0.3 -0.5,0.3 z m 3.2,-4.5 c -0.1,0 -0.3,0 -0.4,-0.1 -0.3,-0.2 -0.3,-0.6 -0.1,-0.9 0.4,-0.5 0.8,-0.9 1.3,-1.4 0.2,-0.2 0.6,-0.3 0.9,0 0.2,0.2 0.3,0.6 0,0.9 -0.4,0.4 -0.8,0.9 -1.2,1.3 -0.2,0.1 -0.3,0.2 -0.5,0.2 z m 45.9,-2.3 c -0.2,0 -0.3,-0.1 -0.4,-0.2 -0.4,-0.4 -0.9,-0.8 -1.3,-1.2 -0.3,-0.2 -0.3,-0.6 -0.1,-0.9 0.2,-0.3 0.6,-0.3 0.9,-0.1 0.5,0.4 0.9,0.8 1.4,1.3 0.2,0.2 0.2,0.6 0,0.9 -0.2,0.1 -0.3,0.2 -0.5,0.2 z m -42,-1.6 c -0.2,0 -0.4,-0.1 -0.5,-0.2 -0.2,-0.3 -0.2,-0.6 0.1,-0.9 0.5,-0.4 1,-0.8 1.5,-1.2 0.3,-0.2 0.7,-0.1 0.9,0.1 0.2,0.3 0.1,0.7 -0.1,0.9 -0.5,0.4 -1,0.7 -1.4,1.1 -0.2,0.1 -0.3,0.2 -0.5,0.2 z m 37.7,-1.9 c -0.1,0 -0.2,0 -0.3,-0.1 -0.5,-0.3 -1,-0.7 -1.5,-1 -0.3,-0.2 -0.4,-0.5 -0.2,-0.8 0.2,-0.3 0.6,-0.4 0.8,-0.2 0.5,0.3 1.1,0.7 1.6,1 0.3,0.2 0.4,0.6 0.2,0.9 -0.2,0.1 -0.4,0.2 -0.6,0.2 z m -33.2,-1.3 c -0.2,0 -0.4,-0.1 -0.5,-0.3 -0.2,-0.3 -0.1,-0.7 0.2,-0.8 0.5,-0.3 1.1,-0.6 1.7,-0.9 0.3,-0.2 0.7,0 0.8,0.3 0.2,0.3 0,0.7 -0.3,0.8 -0.5,0.3 -1.1,0.5 -1.6,0.8 0,0.1 -0.1,0.1 -0.3,0.1 z m 28.4,-1.4 c -0.1,0 -0.2,0 -0.2,-0.1 -0.5,-0.2 -1.1,-0.5 -1.7,-0.7 -0.3,-0.1 -0.5,-0.5 -0.4,-0.8 0.1,-0.3 0.5,-0.5 0.8,-0.4 0.6,0.2 1.2,0.5 1.7,0.7 0.3,0.1 0.4,0.5 0.3,0.8 0,0.4 -0.3,0.5 -0.5,0.5 z m -23.3,-0.9 c -0.3,0 -0.5,-0.2 -0.6,-0.4 -0.1,-0.3 0.1,-0.7 0.4,-0.8 0.6,-0.2 1.2,-0.4 1.8,-0.6 0.3,-0.1 0.7,0.1 0.8,0.4 0.1,0.3 -0.1,0.7 -0.4,0.8 -0.6,0.2 -1.2,0.4 -1.7,0.6 -0.2,0 -0.3,0 -0.3,0 z m 18.1,-0.9 c 0,0 -0.1,0 -0.1,0 -0.6,-0.1 -1.2,-0.3 -1.8,-0.4 -0.3,-0.1 -0.6,-0.4 -0.5,-0.7 0.1,-0.3 0.4,-0.6 0.7,-0.5 0.6,0.1 1.2,0.2 1.8,0.4 0.3,0.1 0.5,0.4 0.4,0.7 0,0.3 -0.2,0.5 -0.5,0.5 z m -12.8,-0.5 c -0.3,0 -0.6,-0.2 -0.6,-0.5 -0.1,-0.3 0.2,-0.7 0.5,-0.7 0.6,-0.1 1.2,-0.2 1.9,-0.3 0.3,0 0.6,0.2 0.7,0.5 0,0.3 -0.2,0.6 -0.5,0.7 -0.6,0.1 -1.2,0.1 -1.8,0.2 -0.1,0.1 -0.2,0.1 -0.2,0.1 z m 7.3,-0.3 c 0,0 0,0 0,0 -0.6,0 -1.2,-0.1 -1.8,-0.1 -0.3,0 -0.6,-0.3 -0.6,-0.6 0,-0.3 0.3,-0.6 0.6,-0.6 0,0 0,0 0,0 0.6,0 1.3,0 1.9,0.1 0.3,0 0.6,0.3 0.6,0.7 -0.1,0.2 -0.4,0.5 -0.7,0.5 z"
   id="path184"
   inkscape:connector-curvature="0"
   style="fill:#8f6fc9" />
		</g>
		<polygon
   class="st4"
   points="506.3,110.7 517.7,116 513.2,104.2 "
   id="polygon188"
   style="fill:#8f6fc9" />
	</g>
	<g
   id="g198">
		<g
   id="g194">
			<path
   class="st4"
   d="m 674.6,292.5 c 0.5,0.3 1,0.6 1.6,0.9 0.3,0.2 0.4,0.5 0.2,0.8 -0.2,0.3 -0.5,0.4 -0.8,0.2 -0.5,-0.3 -1.1,-0.6 -1.6,-0.9 -0.3,-0.2 -0.4,-0.6 -0.2,-0.8 0.1,-0.3 0.5,-0.4 0.8,-0.2 z m 4.8,2.4 c 0.6,0.2 1.1,0.4 1.7,0.6 0.3,0.1 0.5,0.5 0.4,0.8 -0.1,0.3 -0.5,0.5 -0.8,0.4 -0.6,-0.2 -1.2,-0.4 -1.8,-0.6 -0.3,-0.1 -0.5,-0.5 -0.3,-0.8 0,0 0,-0.1 0,-0.1 0.2,-0.3 0.6,-0.4 0.8,-0.3 z m 5.2,1.5 c 0.6,0.1 1.2,0.2 1.8,0.3 0.3,0 0.6,0.4 0.5,0.7 0,0.3 -0.4,0.6 -0.7,0.5 -0.6,-0.1 -1.2,-0.2 -1.8,-0.3 -0.3,-0.1 -0.5,-0.4 -0.5,-0.7 0,-0.1 0,-0.1 0.1,-0.2 0.1,-0.2 0.4,-0.3 0.6,-0.3 z m 5.4,0.6 c 0.6,0 1.2,0 1.8,0 0.3,0 0.6,0.3 0.6,0.6 0,0.3 -0.3,0.6 -0.6,0.6 -0.6,0 -1.3,0 -1.9,0 -0.3,0 -0.6,-0.3 -0.6,-0.6 0,-0.1 0,-0.2 0.1,-0.3 0.2,-0.2 0.4,-0.3 0.6,-0.3 z m 5.4,-0.3 c 0.6,-0.1 1.2,-0.2 1.8,-0.3 0.3,-0.1 0.7,0.1 0.7,0.5 0.1,0.3 -0.1,0.7 -0.5,0.7 -0.6,0.1 -1.2,0.2 -1.8,0.3 -0.3,0.1 -0.6,-0.2 -0.7,-0.5 0,-0.1 0,-0.3 0.1,-0.4 0.1,-0.2 0.2,-0.3 0.4,-0.3 z m 25.9,-37.9 c 0.3,-0.1 0.7,0.1 0.7,0.5 0.1,0.6 0.3,1.2 0.4,1.8 0.1,0.3 -0.2,0.6 -0.5,0.7 -0.3,0.1 -0.6,-0.2 -0.7,-0.5 -0.1,-0.6 -0.2,-1.2 -0.3,-1.8 0,-0.2 0,-0.3 0.1,-0.5 0,-0.1 0.1,-0.2 0.3,-0.2 z m -20.7,36.6 c 0.6,-0.2 1.1,-0.4 1.7,-0.6 0.3,-0.1 0.7,0 0.8,0.3 0.1,0.3 0,0.7 -0.3,0.8 -0.6,0.2 -1.2,0.5 -1.8,0.7 -0.3,0.1 -0.7,-0.1 -0.8,-0.4 -0.1,-0.2 0,-0.4 0.1,-0.5 0.1,-0.2 0.2,-0.2 0.3,-0.3 z m 21.5,-31.2 c 0.3,0 0.6,0.2 0.6,0.6 0,0.6 0,1.2 0,1.9 0,0.3 -0.3,0.6 -0.6,0.6 -0.3,0 -0.6,-0.3 -0.6,-0.6 0,-0.6 0,-1.2 0,-1.8 0,-0.1 0,-0.2 0.1,-0.3 0.1,-0.2 0.3,-0.4 0.5,-0.4 z m -16.5,29 c 0.5,-0.3 1,-0.6 1.6,-0.9 0.3,-0.2 0.7,-0.1 0.8,0.2 0.2,0.3 0.1,0.7 -0.2,0.8 -0.5,0.3 -1.1,0.6 -1.6,1 -0.3,0.2 -0.7,0.1 -0.8,-0.2 -0.1,-0.2 -0.1,-0.4 0,-0.6 0,-0.1 0.1,-0.2 0.2,-0.3 z M 722,269.7 c 0.3,0 0.6,0.4 0.5,0.7 -0.1,0.6 -0.2,1.2 -0.3,1.9 -0.1,0.3 -0.4,0.6 -0.7,0.5 -0.3,-0.1 -0.6,-0.4 -0.5,-0.7 0.1,-0.6 0.2,-1.2 0.3,-1.8 0,-0.1 0,-0.2 0.1,-0.2 0.1,-0.3 0.4,-0.4 0.6,-0.4 z m -11.9,20.5 c 0.5,-0.4 0.9,-0.8 1.4,-1.2 0.3,-0.2 0.6,-0.2 0.9,0 0.2,0.3 0.2,0.6 0,0.9 -0.5,0.4 -0.9,0.8 -1.4,1.2 -0.3,0.2 -0.7,0.2 -0.9,-0.1 -0.2,-0.2 -0.2,-0.5 0,-0.7 -0.1,0 -0.1,0 0,-0.1 z m 10.8,-15.1 c 0.3,0.1 0.5,0.4 0.4,0.8 -0.2,0.6 -0.4,1.2 -0.6,1.8 -0.1,0.3 -0.5,0.5 -0.8,0.4 -0.3,-0.1 -0.5,-0.5 -0.4,-0.8 0.2,-0.6 0.4,-1.1 0.6,-1.7 0,0 0,-0.1 0.1,-0.1 0.1,-0.3 0.4,-0.4 0.7,-0.4 z m -6.9,11.4 c 0.4,-0.5 0.8,-0.9 1.1,-1.4 0.2,-0.3 0.6,-0.3 0.9,-0.1 0.3,0.2 0.3,0.6 0.1,0.9 -0.4,0.5 -0.8,1 -1.2,1.5 -0.2,0.3 -0.6,0.3 -0.9,0.1 -0.2,-0.4 -0.2,-0.7 0,-1 -0.1,0 0,0 0,0 z m 4.9,-6.2 c 0.3,0.2 0.4,0.5 0.3,0.8 -0.3,0.5 -0.6,1.1 -0.9,1.6 0,0 0,0 0,0 -0.2,0.3 -0.6,0.4 -0.8,0.2 -0.3,-0.2 -0.4,-0.6 -0.2,-0.8 0.3,-0.5 0.6,-1 0.9,-1.6 0,0 0,0 0,0 0,-0.3 0.4,-0.4 0.7,-0.2 z"
   id="path192"
   inkscape:connector-curvature="0"
   style="fill:#8f6fc9" />
		</g>
		<polygon
   class="st4"
   points="716.8,260.7 718.2,248.1 725.9,258.1 "
   id="polygon196"
   style="fill:#8f6fc9" />
	</g>
	<g
   id="g206">
		<g
   id="g202">
			<path
   class="st4"
   d="m 666.2,160.7 c 0.3,-0.5 0.6,-1 0.9,-1.6 0.2,-0.3 0.5,-0.4 0.8,-0.2 0.3,0.2 0.4,0.5 0.2,0.8 -0.3,0.5 -0.6,1.1 -0.9,1.6 -0.2,0.3 -0.6,0.4 -0.8,0.2 -0.3,-0.1 -0.4,-0.5 -0.2,-0.8 z m 2.4,-4.8 c 0.2,-0.6 0.4,-1.1 0.6,-1.7 0.1,-0.3 0.5,-0.5 0.8,-0.4 0.3,0.1 0.5,0.5 0.4,0.8 -0.2,0.6 -0.4,1.2 -0.6,1.8 -0.1,0.3 -0.5,0.5 -0.8,0.3 0,0 -0.1,0 -0.1,0 -0.3,-0.2 -0.4,-0.5 -0.3,-0.8 z m 1.6,-5.2 c 0.1,-0.6 0.2,-1.2 0.3,-1.8 0,-0.3 0.4,-0.6 0.7,-0.5 0.3,0 0.6,0.4 0.5,0.7 -0.1,0.6 -0.2,1.2 -0.3,1.8 -0.1,0.3 -0.4,0.5 -0.7,0.5 -0.1,0 -0.1,0 -0.2,-0.1 -0.3,-0.1 -0.4,-0.3 -0.3,-0.6 z m 0.6,-5.4 c 0,-0.6 0,-1.2 0,-1.8 0,-0.3 0.3,-0.6 0.6,-0.6 0.3,0 0.6,0.3 0.6,0.6 0,0.6 0,1.3 0,1.9 0,0.3 -0.3,0.6 -0.6,0.6 -0.1,0 -0.2,0 -0.3,-0.1 -0.2,-0.1 -0.4,-0.3 -0.3,-0.6 z m -0.4,-5.4 c -0.1,-0.6 -0.2,-1.2 -0.3,-1.8 -0.1,-0.3 0.1,-0.7 0.5,-0.7 0.3,-0.1 0.7,0.1 0.7,0.5 0.1,0.6 0.2,1.2 0.3,1.8 0.1,0.3 -0.2,0.6 -0.5,0.7 -0.1,0 -0.3,0 -0.4,-0.1 -0.2,0 -0.3,-0.2 -0.3,-0.4 z M 632.5,114 c -0.1,-0.3 0.1,-0.7 0.5,-0.7 0.6,-0.1 1.2,-0.3 1.8,-0.4 0.3,-0.1 0.6,0.2 0.7,0.5 0.1,0.3 -0.2,0.6 -0.5,0.7 -0.6,0.1 -1.2,0.2 -1.8,0.3 -0.2,0 -0.3,0 -0.5,-0.1 -0.1,0 -0.2,-0.1 -0.2,-0.3 z m 36.6,20.7 c -0.2,-0.6 -0.4,-1.1 -0.6,-1.7 -0.1,-0.3 0,-0.7 0.3,-0.8 0.3,-0.1 0.7,0 0.8,0.3 0.2,0.6 0.5,1.2 0.7,1.8 0.1,0.3 -0.1,0.7 -0.4,0.8 -0.2,0.1 -0.4,0 -0.5,-0.1 -0.1,-0.1 -0.2,-0.2 -0.3,-0.3 z m -31.2,-21.5 c 0,-0.3 0.2,-0.6 0.6,-0.6 0.6,0 1.2,0 1.9,0 0.3,0 0.6,0.3 0.6,0.6 0,0.3 -0.3,0.6 -0.6,0.6 -0.6,0 -1.2,0 -1.8,0 -0.1,0 -0.2,0 -0.3,-0.1 -0.2,-0.1 -0.3,-0.3 -0.4,-0.5 z m 29,16.5 c -0.3,-0.5 -0.6,-1 -0.9,-1.6 -0.2,-0.3 -0.1,-0.7 0.2,-0.8 0.3,-0.2 0.7,-0.1 0.8,0.2 0.3,0.5 0.6,1.1 1,1.6 0.2,0.3 0.1,0.7 -0.2,0.8 -0.2,0.1 -0.4,0.1 -0.6,0 -0.1,0 -0.2,-0.1 -0.3,-0.2 z m -23.4,-16.4 c 0,-0.3 0.4,-0.6 0.7,-0.5 0.6,0.1 1.2,0.2 1.9,0.3 0.3,0.1 0.6,0.4 0.5,0.7 -0.1,0.3 -0.4,0.6 -0.7,0.5 -0.6,-0.1 -1.2,-0.2 -1.8,-0.3 -0.1,0 -0.2,0 -0.2,-0.1 -0.4,-0.1 -0.5,-0.3 -0.4,-0.6 z m 20.4,11.9 c -0.4,-0.5 -0.8,-0.9 -1.2,-1.4 -0.2,-0.3 -0.2,-0.6 0,-0.9 0.3,-0.2 0.6,-0.2 0.9,0 0.4,0.5 0.8,0.9 1.2,1.4 0.2,0.3 0.2,0.7 -0.1,0.9 -0.2,0.2 -0.5,0.2 -0.7,0 0,0.1 0,0.1 -0.1,0 z m -15,-10.8 c 0.1,-0.3 0.4,-0.5 0.8,-0.4 0.6,0.2 1.2,0.4 1.8,0.6 0.3,0.1 0.5,0.5 0.4,0.8 -0.1,0.3 -0.5,0.5 -0.8,0.4 -0.6,-0.2 -1.1,-0.4 -1.7,-0.6 0,0 -0.1,0 -0.1,-0.1 -0.4,-0.1 -0.5,-0.4 -0.4,-0.7 z m 11.3,7 c -0.5,-0.4 -0.9,-0.8 -1.4,-1.1 -0.3,-0.2 -0.3,-0.6 -0.1,-0.9 0.2,-0.3 0.6,-0.3 0.9,-0.1 0.5,0.4 1,0.8 1.5,1.2 0.3,0.2 0.3,0.6 0.1,0.9 -0.3,0.1 -0.7,0.2 -1,0 0,0 0,0 0,0 z m -6.2,-4.9 c 0.2,-0.3 0.5,-0.4 0.8,-0.3 0.5,0.3 1.1,0.6 1.6,0.9 0,0 0,0 0,0 0.3,0.2 0.4,0.6 0.2,0.8 -0.2,0.3 -0.6,0.4 -0.8,0.2 -0.5,-0.3 -1,-0.6 -1.6,-0.9 0,0 0,0 0,0 -0.3,-0.1 -0.4,-0.5 -0.2,-0.7 z"
   id="path200"
   inkscape:connector-curvature="0"
   style="fill:#8f6fc9" />
		</g>
		<polygon
   class="st4"
   points="634.4,118.6 621.8,117.1 631.8,109.5 "
   id="polygon204"
   style="fill:#8f6fc9" />
	</g>
	<g
   id="g214">
		<g
   id="g210">
			<path
   class="st4"
   d="m 368.4,331.7 c 0.2,0.3 0.1,0.7 -0.2,0.8 -0.5,0.3 -1.1,0.6 -1.6,0.9 -0.3,0.2 -0.7,0 -0.8,-0.2 -0.2,-0.3 0,-0.7 0.2,-0.8 0.5,-0.3 1,-0.6 1.6,-0.9 0.2,-0.2 0.6,-0.1 0.8,0.2 z m -4.9,2.5 c 0,0 0,0 0,0 0.2,0.4 0,0.8 -0.3,0.9 -0.6,0.2 -1.2,0.4 -1.8,0.6 -0.3,0.1 -0.7,-0.1 -0.8,-0.4 -0.1,-0.3 0.1,-0.7 0.4,-0.8 0.6,-0.2 1.1,-0.4 1.7,-0.6 0.3,-0.1 0.6,0 0.8,0.3 z m -5.3,1.5 c 0,0.1 0.1,0.1 0.1,0.2 0.1,0.3 -0.1,0.7 -0.5,0.7 -0.6,0.1 -1.2,0.2 -1.8,0.3 -0.3,0 -0.6,-0.2 -0.7,-0.5 0,-0.3 0.2,-0.6 0.5,-0.7 0.6,-0.1 1.2,-0.2 1.8,-0.3 0.2,0 0.4,0.1 0.6,0.3 z m -5.5,0.6 c 0.1,0.1 0.1,0.2 0.1,0.3 0,0.3 -0.3,0.6 -0.6,0.6 -0.6,0 -1.3,0 -1.9,0 -0.3,0 -0.6,-0.3 -0.6,-0.6 0,-0.3 0.3,-0.6 0.6,-0.6 0.6,0 1.2,0 1.8,0 0.3,0 0.5,0.2 0.6,0.3 z m -5.5,-0.3 c 0.1,0.1 0.1,0.3 0.1,0.4 -0.1,0.3 -0.4,0.6 -0.7,0.5 -0.6,-0.1 -1.2,-0.2 -1.8,-0.3 -0.3,-0.1 -0.5,-0.4 -0.5,-0.7 0.1,-0.3 0.4,-0.5 0.7,-0.5 0.6,0.1 1.2,0.2 1.8,0.3 0.1,0 0.3,0.1 0.4,0.3 z m -26,-37.9 c 0.1,0.1 0.1,0.3 0.1,0.5 -0.1,0.6 -0.2,1.2 -0.3,1.8 -0.1,0.3 -0.4,0.6 -0.7,0.5 -0.3,-0.1 -0.6,-0.4 -0.5,-0.7 0.1,-0.6 0.2,-1.2 0.4,-1.8 0.1,-0.3 0.4,-0.5 0.7,-0.5 0.1,-0.1 0.2,0 0.3,0.2 z m 20.6,36.6 c 0.1,0.2 0.1,0.3 0.1,0.5 -0.1,0.3 -0.5,0.5 -0.8,0.4 -0.6,-0.2 -1.2,-0.4 -1.8,-0.7 -0.3,-0.1 -0.5,-0.5 -0.3,-0.8 0.1,-0.3 0.5,-0.5 0.8,-0.3 0.6,0.2 1.1,0.4 1.7,0.6 0.1,0.1 0.3,0.1 0.3,0.3 z m -21.3,-31.2 c 0.1,0.1 0.1,0.2 0.1,0.3 0,0.6 0,1.2 0,1.8 0,0.3 -0.3,0.6 -0.6,0.6 -0.3,0 -0.6,-0.3 -0.6,-0.6 0,-0.6 0,-1.3 0,-1.9 0,-0.3 0.3,-0.6 0.6,-0.6 0.2,0.1 0.4,0.3 0.5,0.4 z m 16.3,28.9 c 0.1,0.2 0.1,0.4 0,0.6 -0.2,0.3 -0.5,0.4 -0.8,0.2 -0.5,-0.3 -1.1,-0.6 -1.6,-1 -0.3,-0.2 -0.4,-0.6 -0.2,-0.8 0.2,-0.3 0.6,-0.4 0.8,-0.2 0.5,0.3 1,0.6 1.6,0.9 0,0.2 0.1,0.3 0.2,0.3 z M 320.7,309 c 0,0.1 0.1,0.2 0.1,0.2 0.1,0.6 0.2,1.2 0.3,1.8 0.1,0.3 -0.2,0.7 -0.5,0.7 -0.3,0.1 -0.7,-0.2 -0.7,-0.5 -0.1,-0.6 -0.2,-1.2 -0.3,-1.9 0,-0.3 0.2,-0.6 0.5,-0.7 0.3,0.1 0.5,0.2 0.6,0.4 z m 11.5,20.4 c 0.1,0.2 0.1,0.5 0,0.7 -0.2,0.3 -0.6,0.3 -0.9,0.1 -0.5,-0.4 -1,-0.8 -1.4,-1.2 -0.3,-0.2 -0.3,-0.6 0,-0.9 0.2,-0.3 0.6,-0.3 0.9,0 0.4,0.4 0.9,0.8 1.4,1.2 -0.1,0 0,0 0,0.1 z m -10.2,-15 c 0,0 0,0.1 0.1,0.1 0.2,0.6 0.4,1.1 0.6,1.7 0.1,0.3 0,0.7 -0.4,0.8 -0.3,0.1 -0.7,0 -0.8,-0.4 -0.2,-0.6 -0.4,-1.2 -0.6,-1.8 -0.1,-0.3 0.1,-0.7 0.4,-0.8 0.2,0.1 0.5,0.2 0.7,0.4 z m 6.2,11.2 c 0.2,0.3 0.1,0.6 -0.1,0.8 -0.3,0.2 -0.6,0.2 -0.9,-0.1 -0.4,-0.5 -0.8,-1 -1.2,-1.5 -0.2,-0.3 -0.2,-0.7 0.1,-0.9 0.3,-0.2 0.7,-0.2 0.9,0.1 0.4,0.6 0.8,1 1.2,1.6 0,-0.1 0,-0.1 0,0 z m -4.1,-6.1 c 0,0 0,0 0,0 0.3,0.6 0.6,1.1 0.9,1.6 0.2,0.3 0.1,0.7 -0.2,0.8 -0.3,0.2 -0.7,0.1 -0.8,-0.2 0,0 0,0 0,0 -0.3,-0.5 -0.6,-1.1 -0.9,-1.6 -0.2,-0.3 0,-0.7 0.3,-0.8 0.2,-0.2 0.5,-0.1 0.7,0.2 z"
   id="path208"
   inkscape:connector-curvature="0"
   style="fill:#8f6fc9" />
		</g>
		<polygon
   class="st4"
   points="325.4,299.7 324,287.1 316.3,297.1 "
   id="polygon212"
   style="fill:#8f6fc9" />
	</g>
	<g
   id="g224">
		<path
   class="st4"
   d="m 527.8,118.6 c 0,1.2 -0.9,2.1 -2.1,2.1 -1.2,0 -2.1,-0.9 -2.1,-2.1 0,-1.2 0.9,-2.1 2.1,-2.1 1.1,0 2.1,0.9 2.1,2.1 z"
   id="path216"
   inkscape:connector-curvature="0"
   style="fill:#8f6fc9" />
		<circle
   class="st4"
   cx="534.29999"
   cy="118.6"
   r="2.0999999"
   id="circle218"
   style="fill:#8f6fc9" />
		<path
   class="st4"
   d="m 545,118.6 c 0,1.2 -0.9,2.1 -2.1,2.1 -1.2,0 -2.1,-0.9 -2.1,-2.1 0,-1.2 0.9,-2.1 2.1,-2.1 1.2,0 2.1,0.9 2.1,2.1 z"
   id="path220"
   inkscape:connector-curvature="0"
   style="fill:#8f6fc9" />
		<circle
   class="st4"
   cx="551.5"
   cy="118.6"
   r="2.0999999"
   id="circle222"
   style="fill:#8f6fc9" />
	</g>
	<g
   id="g234">
		<circle
   class="st11"
   cx="577.79999"
   cy="107"
   r="2.0999999"
   id="circle226"
   style="fill:#80a880" />
		<circle
   class="st11"
   cx="586.40002"
   cy="107"
   r="2.0999999"
   id="circle228"
   style="fill:#80a880" />
		<path
   class="st11"
   d="m 597.1,107 c 0,1.2 -0.9,2.1 -2.1,2.1 -1.2,0 -2.1,-0.9 -2.1,-2.1 0,-1.2 0.9,-2.1 2.1,-2.1 1.1,0 2.1,0.9 2.1,2.1 z"
   id="path230"
   inkscape:connector-curvature="0"
   style="fill:#80a880" />
		<circle
   class="st11"
   cx="603.59998"
   cy="107"
   r="2.0999999"
   id="circle232"
   style="fill:#80a880" />
	</g>
	<g
   id="g244">
		<path
   class="st4"
   d="m 351.5,305.5 c 0,1.2 -0.9,2.1 -2.1,2.1 -1.2,0 -2.1,-0.9 -2.1,-2.1 0,-1.2 0.9,-2.1 2.1,-2.1 1.2,0 2.1,1 2.1,2.1 z"
   id="path236"
   inkscape:connector-curvature="0"
   style="fill:#8f6fc9" />
		<circle
   class="st4"
   cx="358.10001"
   cy="305.5"
   r="2.0999999"
   id="circle238"
   style="fill:#8f6fc9" />
		<circle
   class="st4"
   cx="366.70001"
   cy="305.5"
   r="2.0999999"
   id="circle240"
   style="fill:#8f6fc9" />
		<path
   class="st4"
   d="m 377.4,305.5 c 0,1.2 -0.9,2.1 -2.1,2.1 -1.2,0 -2.1,-0.9 -2.1,-2.1 0,-1.2 0.9,-2.1 2.1,-2.1 1.2,0 2.1,1 2.1,2.1 z"
   id="path242"
   inkscape:connector-curvature="0"
   style="fill:#8f6fc9" />
	</g>
	<g
   id="g254">
		<path
   class="st11"
   d="m 323.9,240.1 c 0,1.2 -0.9,2.1 -2.1,2.1 -1.2,0 -2.1,-0.9 -2.1,-2.1 0,-1.2 0.9,-2.1 2.1,-2.1 1.2,0 2.1,0.9 2.1,2.1 z"
   id="path246"
   inkscape:connector-curvature="0"
   style="fill:#80a880" />
		<path
   class="st11"
   d="m 332.5,240.1 c 0,1.2 -0.9,2.1 -2.1,2.1 -1.2,0 -2.1,-0.9 -2.1,-2.1 0,-1.2 0.9,-2.1 2.1,-2.1 1.2,0 2.1,0.9 2.1,2.1 z"
   id="path248"
   inkscape:connector-curvature="0"
   style="fill:#80a880" />
		<circle
   class="st11"
   cx="339.10001"
   cy="240.10001"
   r="2.0999999"
   id="circle250"
   style="fill:#80a880" />
		<path
   class="st11"
   d="m 349.8,240.1 c 0,1.2 -0.9,2.1 -2.1,2.1 -1.2,0 -2.1,-0.9 -2.1,-2.1 0,-1.2 0.9,-2.1 2.1,-2.1 1.1,0 2.1,0.9 2.1,2.1 z"
   id="path252"
   inkscape:connector-curvature="0"
   style="fill:#80a880" />
	</g>
	<g
   id="g264">
		<path
   class="st11"
   d="m 685.3,271.6 c 0,1.2 -0.9,2.1 -2.1,2.1 -1.2,0 -2.1,-0.9 -2.1,-2.1 0,-1.2 0.9,-2.1 2.1,-2.1 1.1,0 2.1,0.9 2.1,2.1 z"
   id="path256"
   inkscape:connector-curvature="0"
   style="fill:#80a880" />
		<path
   class="st11"
   d="m 693.9,271.6 c 0,1.2 -0.9,2.1 -2.1,2.1 -1.2,0 -2.1,-0.9 -2.1,-2.1 0,-1.2 0.9,-2.1 2.1,-2.1 1.1,0 2.1,0.9 2.1,2.1 z"
   id="path258"
   inkscape:connector-curvature="0"
   style="fill:#80a880" />
		<path
   class="st11"
   d="m 702.5,271.6 c 0,1.2 -0.9,2.1 -2.1,2.1 -1.2,0 -2.1,-0.9 -2.1,-2.1 0,-1.2 0.9,-2.1 2.1,-2.1 1.2,0 2.1,0.9 2.1,2.1 z"
   id="path260"
   inkscape:connector-curvature="0"
   style="fill:#80a880" />
		<path
   class="st11"
   d="m 711.1,271.6 c 0,1.2 -0.9,2.1 -2.1,2.1 -1.2,0 -2.1,-0.9 -2.1,-2.1 0,-1.2 0.9,-2.1 2.1,-2.1 1.2,0 2.1,0.9 2.1,2.1 z"
   id="path262"
   inkscape:connector-curvature="0"
   style="fill:#80a880" />
	</g>
	<g
   id="g274">
		<path
   class="st9"
   d="m 678,260 c 0,1.2 -0.9,2.1 -2.1,2.1 -1.2,0 -2.1,-0.9 -2.1,-2.1 0,-1.2 0.9,-2.1 2.1,-2.1 1.1,0 2.1,0.9 2.1,2.1 z"
   id="path266"
   inkscape:connector-curvature="0"
   style="fill:#ffefb0" />
		<path
   class="st9"
   d="m 686.6,260 c 0,1.2 -0.9,2.1 -2.1,2.1 -1.2,0 -2.1,-0.9 -2.1,-2.1 0,-1.2 0.9,-2.1 2.1,-2.1 1.1,0 2.1,0.9 2.1,2.1 z"
   id="path268"
   inkscape:connector-curvature="0"
   style="fill:#ffefb0" />
		<path
   class="st9"
   d="m 695.2,260 c 0,1.2 -0.9,2.1 -2.1,2.1 -1.2,0 -2.1,-0.9 -2.1,-2.1 0,-1.2 0.9,-2.1 2.1,-2.1 1.2,0 2.1,0.9 2.1,2.1 z"
   id="path270"
   inkscape:connector-curvature="0"
   style="fill:#ffefb0" />
		<path
   class="st9"
   d="m 703.8,260 c 0,1.2 -0.9,2.1 -2.1,2.1 -1.2,0 -2.1,-0.9 -2.1,-2.1 0,-1.2 0.9,-2.1 2.1,-2.1 1.2,0 2.1,0.9 2.1,2.1 z"
   id="path272"
   inkscape:connector-curvature="0"
   style="fill:#ffefb0" />
	</g>
	<g
   id="g296">
		<path
   class="st10"
   d="m 745,218.9 c 0.1,-0.4 0.1,-0.9 0.1,-1.3 0,-3.8 -3.1,-6.8 -6.8,-6.8 -1.2,0 -2.3,0.3 -3.2,0.8 -2.1,-2.9 -5.5,-4.8 -9.4,-4.8 -6.4,0 -11.7,5.2 -11.7,11.7 0,0 0,0.1 0,0.1 -6.1,0.7 -10.9,5.9 -10.9,12.2 v 0 c 0,6.8 5.5,12.3 12.3,12.3 h 26.3 c 6.8,0 12.3,-5.5 12.3,-12.3 v 0 c 0,-5.7 -3.8,-10.4 -9,-11.9 z"
   id="path276"
   inkscape:connector-curvature="0"
   style="opacity:0.87000002;fill:#ffefb0" />
		<g
   id="g294">
			<path
   class="st4"
   d="m 714,229.6 c 1.4,0 1.7,-0.7 1.9,-1.4 h 1.2 v 11.1 h -1.7 v -8.5 H 714 Z"
   id="path278"
   inkscape:connector-curvature="0"
   style="fill:#8f6fc9" />
			<path
   class="st4"
   d="m 719,230.8 c 0,-1.8 0.9,-2.8 2.7,-2.8 1.8,0 2.7,1 2.7,2.8 v 5.8 c 0,1.8 -0.9,2.8 -2.7,2.8 -1.8,0 -2.7,-1 -2.7,-2.8 z m 1.8,6 c 0,0.8 0.4,1.1 0.9,1.1 0.6,0 0.9,-0.3 0.9,-1.1 v -6 c 0,-0.8 -0.4,-1.1 -0.9,-1.1 -0.6,0 -0.9,0.3 -0.9,1.1 z"
   id="path280"
   inkscape:connector-curvature="0"
   style="fill:#8f6fc9" />
			<path
   class="st4"
   d="m 726.6,229.6 c 1.4,0 1.7,-0.7 1.9,-1.4 h 1.2 v 11.1 H 728 v -8.5 h -1.4 z"
   id="path282"
   inkscape:connector-curvature="0"
   style="fill:#8f6fc9" />
			<path
   class="st4"
   d="m 731.6,230.8 c 0,-1.8 0.9,-2.8 2.7,-2.8 1.7,0 2.7,1 2.7,2.8 v 5.8 c 0,1.8 -0.9,2.8 -2.7,2.8 -1.7,0 -2.7,-1 -2.7,-2.8 z m 1.8,6 c 0,0.8 0.3,1.1 0.9,1.1 0.6,0 0.9,-0.3 0.9,-1.1 v -6 c 0,-0.8 -0.4,-1.1 -0.9,-1.1 -0.6,0 -0.9,0.3 -0.9,1.1 z"
   id="path284"
   inkscape:connector-curvature="0"
   style="fill:#8f6fc9" />
			<path
   class="st4"
   d="m 737.9,230.8 c 0,-1.8 0.9,-2.8 2.7,-2.8 1.7,0 2.7,1 2.7,2.8 v 5.8 c 0,1.8 -0.9,2.8 -2.7,2.8 -1.7,0 -2.7,-1 -2.7,-2.8 z m 1.8,6 c 0,0.8 0.3,1.1 0.9,1.1 0.6,0 0.9,-0.3 0.9,-1.1 v -6 c 0,-0.8 -0.3,-1.1 -0.9,-1.1 -0.6,0 -0.9,0.3 -0.9,1.1 z"
   id="path286"
   inkscape:connector-curvature="0"
   style="fill:#8f6fc9" />
			<path
   class="st4"
   d="m 719.7,217.5 c 0,-1.8 0.9,-2.8 2.7,-2.8 1.7,0 2.7,1 2.7,2.8 v 5.8 c 0,1.8 -0.9,2.8 -2.7,2.8 -1.7,0 -2.7,-1 -2.7,-2.8 z m 1.7,5.9 c 0,0.8 0.3,1.1 0.9,1.1 0.6,0 0.9,-0.3 0.9,-1.1 v -6 c 0,-0.8 -0.4,-1.1 -0.9,-1.1 -0.6,0 -0.9,0.3 -0.9,1.1 z"
   id="path288"
   inkscape:connector-curvature="0"
   style="fill:#8f6fc9" />
			<path
   class="st4"
   d="m 727.2,216.3 c 1.4,0 1.7,-0.7 1.9,-1.4 h 1.2 V 226 h -1.8 v -8.5 h -1.4 v -1.2 z"
   id="path290"
   inkscape:connector-curvature="0"
   style="fill:#8f6fc9" />
			<path
   class="st4"
   d="m 733.5,216.3 c 1.4,0 1.7,-0.7 1.9,-1.4 h 1.2 V 226 h -1.8 v -8.5 h -1.4 v -1.2 z"
   id="path292"
   inkscape:connector-curvature="0"
   style="fill:#8f6fc9" />
		</g>
	</g>
	<g
   id="g314">
		<path
   class="st4"
   d="m 474.9,163.1 c 1.4,0 1.7,-0.7 1.9,-1.4 h 1.2 v 11.1 h -1.7 v -8.5 h -1.4 z"
   id="path298"
   inkscape:connector-curvature="0"
   style="fill:#8f6fc9" />
		<path
   class="st4"
   d="m 480,164.4 c 0,-1.8 0.9,-2.8 2.7,-2.8 1.7,0 2.7,1 2.7,2.8 v 5.8 c 0,1.8 -0.9,2.8 -2.7,2.8 -1.7,0 -2.7,-1 -2.7,-2.8 z m 1.7,5.9 c 0,0.8 0.4,1.1 0.9,1.1 0.6,0 0.9,-0.3 0.9,-1.1 v -6 c 0,-0.8 -0.4,-1.1 -0.9,-1.1 -0.6,0 -0.9,0.3 -0.9,1.1 z"
   id="path300"
   inkscape:connector-curvature="0"
   style="fill:#8f6fc9" />
		<path
   class="st4"
   d="m 487.5,163.1 c 1.4,0 1.7,-0.7 1.9,-1.4 h 1.2 v 11.1 h -1.7 v -8.5 h -1.4 z"
   id="path302"
   inkscape:connector-curvature="0"
   style="fill:#8f6fc9" />
		<path
   class="st4"
   d="m 492.6,164.4 c 0,-1.8 0.9,-2.8 2.7,-2.8 1.7,0 2.7,1 2.7,2.8 v 5.8 c 0,1.8 -0.9,2.8 -2.7,2.8 -1.7,0 -2.7,-1 -2.7,-2.8 z m 1.7,5.9 c 0,0.8 0.3,1.1 0.9,1.1 0.6,0 0.9,-0.3 0.9,-1.1 v -6 c 0,-0.8 -0.4,-1.1 -0.9,-1.1 -0.6,0 -0.9,0.3 -0.9,1.1 z"
   id="path304"
   inkscape:connector-curvature="0"
   style="fill:#8f6fc9" />
		<path
   class="st4"
   d="m 498.9,164.4 c 0,-1.8 0.9,-2.8 2.7,-2.8 1.7,0 2.7,1 2.7,2.8 v 5.8 c 0,1.8 -0.9,2.8 -2.7,2.8 -1.7,0 -2.7,-1 -2.7,-2.8 z m 1.7,5.9 c 0,0.8 0.3,1.1 0.9,1.1 0.6,0 0.9,-0.3 0.9,-1.1 v -6 c 0,-0.8 -0.4,-1.1 -0.9,-1.1 -0.6,0 -0.9,0.3 -0.9,1.1 z"
   id="path306"
   inkscape:connector-curvature="0"
   style="fill:#8f6fc9" />
		<path
   class="st4"
   d="m 480.6,151.1 c 0,-1.8 0.9,-2.8 2.7,-2.8 1.7,0 2.7,1 2.7,2.8 v 5.8 c 0,1.8 -0.9,2.8 -2.7,2.8 -1.7,0 -2.7,-1 -2.7,-2.8 z m 1.7,5.9 c 0,0.8 0.3,1.1 0.9,1.1 0.6,0 0.9,-0.3 0.9,-1.1 v -6 c 0,-0.8 -0.4,-1.1 -0.9,-1.1 -0.6,0 -0.9,0.3 -0.9,1.1 z"
   id="path308"
   inkscape:connector-curvature="0"
   style="fill:#8f6fc9" />
		<path
   class="st4"
   d="m 488.1,149.8 c 1.4,0 1.7,-0.7 1.9,-1.4 h 1.2 v 11.1 h -1.8 V 151 H 488 v -1.2 z"
   id="path310"
   inkscape:connector-curvature="0"
   style="fill:#8f6fc9" />
		<path
   class="st4"
   d="m 494.4,149.8 c 1.4,0 1.7,-0.7 1.9,-1.4 h 1.2 v 11.1 h -1.8 V 151 h -1.4 v -1.2 z"
   id="path312"
   inkscape:connector-curvature="0"
   style="fill:#8f6fc9" />
	</g>
	<path
   class="st4"
   d="m 700.9,216.8 c 0,-4.2 -1.9,-8 -5,-10.4 -0.1,-0.1 -0.1,-0.1 -0.2,-0.2 -2.3,-1.8 -5.1,-2.8 -8.2,-2.8 -3.1,0 -5.9,1.1 -8.2,2.8 -0.1,0 -0.2,0.1 -0.2,0.2 -3,2.5 -5,6.2 -5,10.4 0,4.2 1.9,8 5,10.4 0.1,0.1 0.1,0.1 0.2,0.1 2.3,1.8 5.1,2.9 8.2,2.9 3.1,0 6,-1.1 8.2,-2.8 0.1,0 0.1,-0.1 0.2,-0.2 3,-2.5 5,-6.2 5,-10.4 z m -5.8,8.4 c -0.6,-0.4 -1.2,-0.8 -1.9,-1.1 0.6,-1.8 1,-4 1.1,-6.4 h 4.5 c -0.2,3 -1.6,5.6 -3.7,7.5 z m -10.9,0 c 1,-0.3 2.1,-0.5 3.3,-0.5 1.1,0 2.2,0.2 3.3,0.5 -0.9,1.9 -2.1,3 -3.3,3 -1.2,0 -2.4,-1.1 -3.3,-3 z m -1.1,2.1 c -0.6,-0.2 -1.2,-0.5 -1.7,-0.9 0.3,-0.2 0.6,-0.4 0.9,-0.5 0.3,0.5 0.5,1 0.8,1.4 z m 4.3,-22 c 1.1,0 2.3,1.1 3.3,3 -1,0.3 -2.1,0.5 -3.3,0.5 -1.1,0 -2.2,-0.2 -3.3,-0.5 1,-1.9 2.2,-3 3.3,-3 z m -5.1,2.3 c -0.3,-0.2 -0.6,-0.3 -0.9,-0.5 0.5,-0.3 1.1,-0.6 1.7,-0.9 -0.3,0.4 -0.5,0.9 -0.8,1.4 z m 9.5,-1.4 c 0.6,0.2 1.2,0.5 1.7,0.9 -0.3,0.2 -0.6,0.4 -0.9,0.5 -0.3,-0.5 -0.6,-1 -0.8,-1.4 z m -4.4,4.6 c 1.4,0 2.7,-0.2 4,-0.6 0.5,1.6 0.9,3.5 0.9,5.6 h -9.9 c 0.1,-2.1 0.4,-4.1 0.9,-5.6 1.4,0.3 2.8,0.6 4.1,0.6 z m 5,6.9 c -0.1,2.1 -0.4,4.1 -0.9,5.6 -1.3,-0.4 -2.6,-0.6 -4,-0.6 -1.4,0 -2.7,0.2 -4,0.6 -0.5,-1.6 -0.9,-3.5 -0.9,-5.6 z m 0.1,8.2 c 0.3,0.2 0.6,0.3 0.9,0.5 -0.5,0.3 -1.1,0.6 -1.7,0.9 0.3,-0.4 0.6,-0.9 0.8,-1.4 z m 6.3,-10.1 h -4.5 c -0.1,-2.4 -0.5,-4.5 -1.1,-6.4 0.6,-0.3 1.3,-0.7 1.9,-1.1 2.1,1.9 3.5,4.5 3.7,7.5 z m -19.1,-7.5 c 0.6,0.4 1.2,0.8 1.9,1.1 -0.6,1.8 -1,4 -1.1,6.4 H 676 c 0.3,-3 1.7,-5.6 3.7,-7.5 z m -3.6,9.4 h 4.5 c 0.1,2.4 0.5,4.5 1.1,6.4 -0.6,0.3 -1.3,0.7 -1.9,1.1 -2.1,-1.9 -3.5,-4.5 -3.7,-7.5 z"
   id="path316"
   inkscape:connector-curvature="0"
   style="fill:#8f6fc9" />
	<g
   id="g322">
		<path
   class="st10"
   d="m 748.1,296.7 c 0.1,-0.4 0.1,-0.9 0.1,-1.3 0,-3.8 -3.1,-6.8 -6.8,-6.8 -1.2,0 -2.3,0.3 -3.2,0.8 -2.1,-2.9 -5.5,-4.8 -9.4,-4.8 -6.4,0 -11.7,5.2 -11.7,11.7 0,0 0,0.1 0,0.1 -6.1,0.7 -10.9,5.9 -10.9,12.2 v 0 c 0,6.8 5.5,12.3 12.3,12.3 h 26.3 c 6.8,0 12.3,-5.5 12.3,-12.3 v 0 c 0,-5.7 -3.8,-10.4 -9,-11.9 z"
   id="path318"
   inkscape:connector-curvature="0"
   style="opacity:0.87000002;fill:#ffefb0" />
		<path
   class="st4"
   d="m 743.1,304.2 c 0,-3.6 -1.7,-6.8 -4.2,-8.9 -0.1,-0.1 -0.1,-0.1 -0.2,-0.1 -1.9,-1.5 -4.4,-2.4 -7,-2.4 -2.6,0 -5.1,0.9 -7,2.4 -0.1,0 -0.1,0.1 -0.2,0.1 -2.6,2.1 -4.2,5.3 -4.2,8.9 0,3.6 1.7,6.8 4.2,8.9 0,0 0.1,0.1 0.2,0.1 1.9,1.5 4.4,2.4 7,2.4 2.6,0 5.1,-0.9 7,-2.4 0.1,0 0.1,-0.1 0.2,-0.1 2.6,-2.1 4.2,-5.3 4.2,-8.9 z m -4.9,7.2 c -0.5,-0.4 -1,-0.7 -1.6,-0.9 0.5,-1.6 0.9,-3.4 0.9,-5.4 h 3.8 c -0.1,2.4 -1.3,4.7 -3.1,6.3 z m -9.3,0 c 0.9,-0.3 1.8,-0.4 2.8,-0.4 1,0 1.9,0.1 2.8,0.4 -0.8,1.6 -1.8,2.5 -2.8,2.5 -1,0 -2,-0.9 -2.8,-2.5 z m -0.9,1.8 c -0.5,-0.2 -1,-0.5 -1.5,-0.8 0.3,-0.2 0.5,-0.3 0.8,-0.4 0.2,0.4 0.5,0.8 0.7,1.2 z m 3.7,-18.8 c 1,0 2,0.9 2.8,2.5 -0.9,0.3 -1.8,0.4 -2.8,0.4 -1,0 -1.9,-0.1 -2.8,-0.4 0.8,-1.5 1.8,-2.5 2.8,-2.5 z m -4.4,1.9 c -0.3,-0.1 -0.5,-0.3 -0.8,-0.4 0.5,-0.3 1,-0.5 1.5,-0.8 -0.2,0.4 -0.5,0.8 -0.7,1.2 z m 8.1,-1.2 c 0.5,0.2 1,0.5 1.5,0.8 -0.3,0.2 -0.5,0.3 -0.8,0.4 -0.3,-0.4 -0.5,-0.8 -0.7,-1.2 z m -3.7,4 c 1.2,0 2.3,-0.2 3.4,-0.5 0.4,1.3 0.7,3 0.8,4.8 h -8.5 c 0.1,-1.8 0.4,-3.5 0.8,-4.8 1.2,0.3 2.3,0.5 3.5,0.5 z m 4.2,5.9 c -0.1,1.8 -0.4,3.5 -0.8,4.8 -1.1,-0.3 -2.3,-0.5 -3.4,-0.5 -1.2,0 -2.3,0.2 -3.4,0.5 -0.4,-1.3 -0.7,-3 -0.8,-4.8 z m 0.1,7 c 0.3,0.1 0.5,0.3 0.8,0.4 -0.5,0.3 -1,0.5 -1.5,0.8 0.3,-0.4 0.5,-0.8 0.7,-1.2 z m 5.4,-8.7 h -3.8 c -0.1,-2 -0.4,-3.9 -0.9,-5.4 0.5,-0.3 1.1,-0.6 1.6,-0.9 1.7,1.6 2.9,3.8 3.1,6.3 z M 725.1,297 c 0.5,0.4 1,0.7 1.6,0.9 -0.5,1.6 -0.9,3.4 -0.9,5.4 H 722 c 0.2,-2.5 1.4,-4.7 3.1,-6.3 z m -3.1,8 h 3.8 c 0.1,2 0.4,3.9 0.9,5.4 -0.5,0.3 -1.1,0.6 -1.6,0.9 -1.7,-1.5 -2.9,-3.8 -3.1,-6.3 z"
   id="path320"
   inkscape:connector-curvature="0"
   style="fill:#8f6fc9" />
	</g>
	<g
   id="g338">
		<g
   id="g330">
			<path
   class="st9"
   d="m 377.8,172 h 16.1 c 4.1,0 7.5,-3.4 7.5,-7.5 v 0 c 0,-4.1 -3.4,-7.5 -7.5,-7.5 h -16.1 c -4.1,0 -7.5,3.4 -7.5,7.5 v 0 c 0,4.1 3.4,7.5 7.5,7.5 z"
   id="path324"
   inkscape:connector-curvature="0"
   style="fill:#ffefb0" />
			<circle
   class="st9"
   cx="387.60001"
   cy="157"
   r="7.0999999"
   id="circle326"
   style="fill:#ffefb0" />
			<circle
   class="st9"
   cx="379.89999"
   cy="156.5"
   r="4.1999998"
   id="circle328"
   style="fill:#ffefb0" />
		</g>
		<path
   class="st4"
   d="m 392.1,160.6 h -12.9 c -0.7,0 -1.2,-0.5 -1.2,-1.2 v 0 c 0,-0.7 0.5,-1.2 1.2,-1.2 h 12.9 c 0.7,0 1.2,0.5 1.2,1.2 v 0 c 0,0.7 -0.6,1.2 -1.2,1.2 z"
   id="path332"
   inkscape:connector-curvature="0"
   style="fill:#8f6fc9" />
		<path
   class="st4"
   d="m 394.6,164.1 h -15.5 c -0.7,0 -1.2,-0.5 -1.2,-1.2 v 0 c 0,-0.7 0.5,-1.2 1.2,-1.2 h 15.5 c 0.7,0 1.2,0.5 1.2,1.2 v 0 c 0,0.7 -0.5,1.2 -1.2,1.2 z"
   id="path334"
   inkscape:connector-curvature="0"
   style="fill:#8f6fc9" />
		<path
   class="st4"
   d="m 394.6,167.6 h -15.5 c -0.7,0 -1.2,-0.5 -1.2,-1.2 v 0 c 0,-0.7 0.5,-1.2 1.2,-1.2 h 15.5 c 0.7,0 1.2,0.5 1.2,1.2 v 0 c 0,0.7 -0.5,1.2 -1.2,1.2 z"
   id="path336"
   inkscape:connector-curvature="0"
   style="fill:#8f6fc9" />
	</g>
	<g
   id="g352">
		<path
   class="st28"
   d="m 646.9,441 v -30.4 c 0,-4 -3.2,-7.2 -7.2,-7.2 h -0.1 c -4,0 -7.2,3.2 -7.2,7.2 v 1.8 c 0,4 -3.2,7.2 -7.2,7.2 v 0 c -4,0 -7.2,-3.2 -7.2,-7.2 v -24.6 c 0,-4.2 -3.4,-7.6 -7.6,-7.6 v 0 c -4.2,0 -7.6,3.4 -7.6,7.6 v 51.4 c 0,4.4 -3.6,8 -8,8 v 0 c -4.4,0 -8,-3.6 -8,-8 v -44.4 c 0,-4 -3.2,-7.2 -7.2,-7.2 h -12.9"
   id="path340"
   inkscape:connector-curvature="0"
   style="fill:none;stroke:#ffffff;stroke-width:1.22679996;stroke-miterlimit:10" />
		<g
   id="g350">
			<g
   id="g346">
				<path
   class="st8"
   d="m 641.2,425.7 c -4.7,0 -8.6,3.8 -8.7,8.5 l -0.4,24 c -0.1,6.9 5.5,12.6 12.4,12.6 h 2.4 v -45.1 z"
   id="path342"
   inkscape:connector-curvature="0"
   style="fill:#ffffff" />
				<path
   class="st7"
   d="m 661.3,434.2 c -0.1,-4.7 -3.9,-8.5 -8.7,-8.5 h -5.7 v 45.1 h 2.4 c 6.9,0 12.5,-5.7 12.4,-12.6 z"
   id="path344"
   inkscape:connector-curvature="0"
   style="fill:#d5e6f0" />
			</g>
			<path
   class="st13"
   d="m 646.8,446.4 v 0 c -1.3,0 -2.3,-1 -2.3,-2.3 v -7.4 c 0,-1.3 1,-2.3 2.3,-2.3 v 0 c 1.3,0 2.3,1 2.3,2.3 v 7.4 c 0,1.3 -1,2.3 -2.3,2.3 z"
   id="path348"
   inkscape:connector-curvature="0"
   style="fill:#8fb4c9" />
		</g>
	</g>
	<g
   id="g490">
		<g
   id="g368">
			<polygon
   class="st14"
   points="566.8,385 565.2,364.3 514,364.3 512.4,385 "
   id="polygon354"
   style="fill:#f1f1f1" />
			<polygon
   class="st15"
   points="514,364.3 565.2,364.3 564.4,352.9 514.9,352.9 "
   id="polygon356"
   style="fill:#808080" />
			<path
   class="st16"
   d="m 580.5,392.1 h -81.8 v -5.2 c 0,-2 1.7,-3.7 3.7,-3.7 h 74.4 c 2,0 3.7,1.7 3.7,3.7 z"
   id="path358"
   inkscape:connector-curvature="0"
   style="fill:#a4cde7" />
			<path
   class="st16"
   d="M 659.9,182.5 H 419.3 c -4.1,0 -7.3,3.3 -7.3,7.3 V 334.2 H 563.4 667.3 V 230.4 189.9 c 0,-4.1 -3.3,-7.4 -7.4,-7.4 z"
   id="path360"
   inkscape:connector-curvature="0"
   style="fill:#a4cde7" />
			<path
   class="st17"
   d="m 538.6,359 h 121.3 c 4.1,0 7.3,-3.3 7.3,-7.3 V 334.3 H 563.4 Z"
   id="path362"
   inkscape:connector-curvature="0"
   style="fill:#e5e5e5" />
			<path
   class="st14"
   d="m 412,334.2 v 17.4 c 0,4.1 3.3,7.3 7.3,7.3 h 119.3 l 24.8,-24.8 H 412 Z"
   id="path364"
   inkscape:connector-curvature="0"
   style="fill:#f1f1f1" />
			<rect
   x="420.89999"
   y="191.39999"
   class="st18"
   width="235.8"
   height="132.7"
   id="rect366"
   style="fill:#2c528f" />
		</g>
		<path
   class="st19"
   d="m 470.4,208.7 h -36.2 c -1.4,0 -2.6,-1.1 -2.6,-2.6 v 0 c 0,-1.4 1.1,-2.6 2.6,-2.6 h 36.2 c 1.4,0 2.6,1.1 2.6,2.6 v 0 c 0,1.4 -1.2,2.6 -2.6,2.6 z"
   id="path370"
   inkscape:connector-curvature="0"
   style="fill:#c2ffc2" />
		<path
   class="st19"
   d="m 562,208.7 h -36.2 c -1.4,0 -2.6,-1.1 -2.6,-2.6 v 0 c 0,-1.4 1.1,-2.6 2.6,-2.6 H 562 c 1.4,0 2.6,1.1 2.6,2.6 v 0 c 0,1.4 -1.2,2.6 -2.6,2.6 z"
   id="path372"
   inkscape:connector-curvature="0"
   style="fill:#c2ffc2" />
		<path
   class="st8"
   d="m 579.8,208.7 h -8.3 c -1.4,0 -2.6,-1.1 -2.6,-2.6 v 0 c 0,-1.4 1.1,-2.6 2.6,-2.6 h 8.3 c 1.4,0 2.6,1.1 2.6,2.6 v 0 c 0,1.4 -1.2,2.6 -2.6,2.6 z"
   id="path374"
   inkscape:connector-curvature="0"
   style="fill:#ffffff" />
		<path
   class="st20"
   d="m 516,208.7 h -13.1 c -1.4,0 -2.6,-1.1 -2.6,-2.6 v 0 c 0,-1.4 1.1,-2.6 2.6,-2.6 H 516 c 1.4,0 2.6,1.1 2.6,2.6 v 0 c 0,1.4 -1.2,2.6 -2.6,2.6 z"
   id="path376"
   inkscape:connector-curvature="0"
   style="fill:#fe168d" />
		<path
   class="st21"
   d="m 458.4,218.1 h -24.2 c -1.4,0 -2.6,-1.1 -2.6,-2.6 v 0 c 0,-1.4 1.1,-2.6 2.6,-2.6 h 24.2 c 1.4,0 2.6,1.1 2.6,2.6 v 0 c 0,1.4 -1.2,2.6 -2.6,2.6 z"
   id="path378"
   inkscape:connector-curvature="0"
   style="fill:#00ffff" />
		<path
   class="st21"
   d="m 523.4,218.1 h -24.2 c -1.4,0 -2.6,-1.1 -2.6,-2.6 v 0 c 0,-1.4 1.1,-2.6 2.6,-2.6 h 24.2 c 1.4,0 2.6,1.1 2.6,2.6 v 0 c 0,1.4 -1.2,2.6 -2.6,2.6 z"
   id="path380"
   inkscape:connector-curvature="0"
   style="fill:#00ffff" />
		<path
   class="st8"
   d="m 536.1,218.1 h -4.4 c -1.4,0 -2.6,-1.1 -2.6,-2.6 v 0 c 0,-1.4 1.1,-2.6 2.6,-2.6 h 4.4 c 1.4,0 2.6,1.1 2.6,2.6 v 0 c -0.1,1.4 -1.2,2.6 -2.6,2.6 z"
   id="path382"
   inkscape:connector-curvature="0"
   style="fill:#ffffff" />
		<path
   class="st21"
   d="m 474.7,218.1 h -7.8 c -1.4,0 -2.6,-1.1 -2.6,-2.6 v 0 c 0,-1.4 1.1,-2.6 2.6,-2.6 h 7.8 c 1.4,0 2.6,1.1 2.6,2.6 v 0 c -0.1,1.4 -1.2,2.6 -2.6,2.6 z"
   id="path384"
   inkscape:connector-curvature="0"
   style="fill:#00ffff" />
		<path
   class="st21"
   d="M 490.8,218.1 H 483 c -1.4,0 -2.6,-1.1 -2.6,-2.6 v 0 c 0,-1.4 1.1,-2.6 2.6,-2.6 h 7.8 c 1.4,0 2.6,1.1 2.6,2.6 v 0 c -0.1,1.4 -1.2,2.6 -2.6,2.6 z"
   id="path386"
   inkscape:connector-curvature="0"
   style="fill:#00ffff" />
		<path
   class="st8"
   d="m 458.4,227.5 h -24.2 c -1.4,0 -2.6,-1.1 -2.6,-2.6 v 0 c 0,-1.4 1.1,-2.6 2.6,-2.6 h 24.2 c 1.4,0 2.6,1.1 2.6,2.6 v 0 c 0,1.4 -1.2,2.6 -2.6,2.6 z"
   id="path388"
   inkscape:connector-curvature="0"
   style="fill:#ffffff" />
		<path
   class="st8"
   d="m 474.7,227.5 h -7.8 c -1.4,0 -2.6,-1.1 -2.6,-2.6 v 0 c 0,-1.4 1.1,-2.6 2.6,-2.6 h 7.8 c 1.4,0 2.6,1.1 2.6,2.6 v 0 c -0.1,1.4 -1.2,2.6 -2.6,2.6 z"
   id="path390"
   inkscape:connector-curvature="0"
   style="fill:#ffffff" />
		<path
   class="st8"
   d="M 490.8,227.5 H 483 c -1.4,0 -2.6,-1.1 -2.6,-2.6 v 0 c 0,-1.4 1.1,-2.6 2.6,-2.6 h 7.8 c 1.4,0 2.6,1.1 2.6,2.6 v 0 c -0.1,1.4 -1.2,2.6 -2.6,2.6 z"
   id="path392"
   inkscape:connector-curvature="0"
   style="fill:#ffffff" />
		<path
   class="st20"
   d="m 534.3,227.5 h -2.5 c -1.4,0 -2.6,-1.1 -2.6,-2.6 v 0 c 0,-1.4 1.1,-2.6 2.6,-2.6 h 2.5 c 1.4,0 2.6,1.1 2.6,2.6 v 0 c 0,1.4 -1.2,2.6 -2.6,2.6 z"
   id="path394"
   inkscape:connector-curvature="0"
   style="fill:#fe168d" />
		<path
   class="st20"
   d="m 545.2,227.5 h -2.5 c -1.4,0 -2.6,-1.1 -2.6,-2.6 v 0 c 0,-1.4 1.1,-2.6 2.6,-2.6 h 2.5 c 1.4,0 2.6,1.1 2.6,2.6 v 0 c -0.1,1.4 -1.2,2.6 -2.6,2.6 z"
   id="path396"
   inkscape:connector-curvature="0"
   style="fill:#fe168d" />
		<path
   class="st8"
   d="m 556,227.5 h -2.5 c -1.4,0 -2.6,-1.1 -2.6,-2.6 v 0 c 0,-1.4 1.1,-2.6 2.6,-2.6 h 2.5 c 1.4,0 2.6,1.1 2.6,2.6 v 0 c 0,1.4 -1.2,2.6 -2.6,2.6 z"
   id="path398"
   inkscape:connector-curvature="0"
   style="fill:#ffffff" />
		<path
   class="st8"
   d="m 566.9,227.5 h -2.5 c -1.4,0 -2.6,-1.1 -2.6,-2.6 v 0 c 0,-1.4 1.1,-2.6 2.6,-2.6 h 2.5 c 1.4,0 2.6,1.1 2.6,2.6 v 0 c 0,1.4 -1.2,2.6 -2.6,2.6 z"
   id="path400"
   inkscape:connector-curvature="0"
   style="fill:#ffffff" />
		<path
   class="st8"
   d="m 447,236.9 h -12.8 c -1.4,0 -2.6,-1.1 -2.6,-2.6 v 0 c 0,-1.4 1.1,-2.6 2.6,-2.6 H 447 c 1.4,0 2.6,1.1 2.6,2.6 v 0 c 0,1.4 -1.1,2.6 -2.6,2.6 z"
   id="path402"
   inkscape:connector-curvature="0"
   style="fill:#ffffff" />
		<path
   class="st20"
   d="M 486.8,236.9 H 474 c -1.4,0 -2.6,-1.1 -2.6,-2.6 v 0 c 0,-1.4 1.1,-2.6 2.6,-2.6 h 12.8 c 1.4,0 2.6,1.1 2.6,2.6 v 0 c -0.1,1.4 -1.2,2.6 -2.6,2.6 z"
   id="path404"
   inkscape:connector-curvature="0"
   style="fill:#fe168d" />
		<path
   class="st8"
   d="m 494.5,236.9 h -0.7 c -1.4,0 -2.6,-1.1 -2.6,-2.6 v 0 c 0,-1.4 1.1,-2.6 2.6,-2.6 h 0.7 c 1.4,0 2.6,1.1 2.6,2.6 v 0 c 0,1.4 -1.2,2.6 -2.6,2.6 z"
   id="path406"
   inkscape:connector-curvature="0"
   style="fill:#ffffff" />
		<path
   class="st8"
   d="m 457,236.9 h -2.8 c -1.4,0 -2.6,-1.1 -2.6,-2.6 v 0 c 0,-1.4 1.1,-2.6 2.6,-2.6 h 2.8 c 1.4,0 2.6,1.1 2.6,2.6 v 0 c -0.1,1.4 -1.2,2.6 -2.6,2.6 z"
   id="path408"
   inkscape:connector-curvature="0"
   style="fill:#ffffff" />
		<path
   class="st8"
   d="M 466.8,236.9 H 464 c -1.4,0 -2.6,-1.1 -2.6,-2.6 v 0 c 0,-1.4 1.1,-2.6 2.6,-2.6 h 2.8 c 1.4,0 2.6,1.1 2.6,2.6 v 0 c 0,1.4 -1.2,2.6 -2.6,2.6 z"
   id="path410"
   inkscape:connector-curvature="0"
   style="fill:#ffffff" />
		<path
   class="st21"
   d="m 463.9,246.3 h -29.7 c -1.4,0 -2.6,-1.1 -2.6,-2.6 v 0 c 0,-1.4 1.1,-2.6 2.6,-2.6 h 29.7 c 1.4,0 2.6,1.1 2.6,2.6 v 0 c 0,1.4 -1.2,2.6 -2.6,2.6 z"
   id="path412"
   inkscape:connector-curvature="0"
   style="fill:#00ffff" />
		<path
   class="st8"
   d="m 517.4,246.3 h -6 c -1.4,0 -2.6,-1.1 -2.6,-2.6 v 0 c 0,-1.4 1.1,-2.6 2.6,-2.6 h 6 c 1.4,0 2.6,1.1 2.6,2.6 v 0 c -0.1,1.4 -1.2,2.6 -2.6,2.6 z"
   id="path414"
   inkscape:connector-curvature="0"
   style="fill:#ffffff" />
		<path
   class="st8"
   d="m 529.3,246.3 h -3 c -1.4,0 -2.6,-1.1 -2.6,-2.6 v 0 c 0,-1.4 1.1,-2.6 2.6,-2.6 h 3 c 1.4,0 2.6,1.1 2.6,2.6 v 0 c 0,1.4 -1.2,2.6 -2.6,2.6 z"
   id="path416"
   inkscape:connector-curvature="0"
   style="fill:#ffffff" />
		<path
   class="st8"
   d="m 541.1,246.3 h -3 c -1.4,0 -2.6,-1.1 -2.6,-2.6 v 0 c 0,-1.4 1.1,-2.6 2.6,-2.6 h 3 c 1.4,0 2.6,1.1 2.6,2.6 v 0 c 0,1.4 -1.2,2.6 -2.6,2.6 z"
   id="path418"
   inkscape:connector-curvature="0"
   style="fill:#ffffff" />
		<path
   class="st21"
   d="M 483.2,246.3 H 473 c -1.4,0 -2.6,-1.1 -2.6,-2.6 v 0 c 0,-1.4 1.1,-2.6 2.6,-2.6 h 10.2 c 1.4,0 2.6,1.1 2.6,2.6 v 0 c 0,1.4 -1.2,2.6 -2.6,2.6 z"
   id="path420"
   inkscape:connector-curvature="0"
   style="fill:#00ffff" />
		<path
   class="st21"
   d="m 502.3,246.3 h -10.2 c -1.4,0 -2.6,-1.1 -2.6,-2.6 v 0 c 0,-1.4 1.1,-2.6 2.6,-2.6 h 10.2 c 1.4,0 2.6,1.1 2.6,2.6 v 0 c 0,1.4 -1.2,2.6 -2.6,2.6 z"
   id="path422"
   inkscape:connector-curvature="0"
   style="fill:#00ffff" />
		<path
   class="st8"
   d="m 468.1,255.7 h -33.9 c -1.4,0 -2.6,-1.1 -2.6,-2.6 v 0 c 0,-1.4 1.1,-2.6 2.6,-2.6 h 33.9 c 1.4,0 2.6,1.1 2.6,2.6 v 0 c 0,1.4 -1.2,2.6 -2.6,2.6 z"
   id="path424"
   inkscape:connector-curvature="0"
   style="fill:#ffffff" />
		<path
   class="st8"
   d="m 554.6,255.7 h -33.9 c -1.4,0 -2.6,-1.1 -2.6,-2.6 v 0 c 0,-1.4 1.1,-2.6 2.6,-2.6 h 33.9 c 1.4,0 2.6,1.1 2.6,2.6 v 0 c 0,1.4 -1.2,2.6 -2.6,2.6 z"
   id="path426"
   inkscape:connector-curvature="0"
   style="fill:#ffffff" />
		<path
   class="st8"
   d="m 571.4,255.7 h -7.6 c -1.4,0 -2.6,-1.1 -2.6,-2.6 v 0 c 0,-1.4 1.1,-2.6 2.6,-2.6 h 7.6 c 1.4,0 2.6,1.1 2.6,2.6 v 0 c 0,1.4 -1.2,2.6 -2.6,2.6 z"
   id="path428"
   inkscape:connector-curvature="0"
   style="fill:#ffffff" />
		<path
   class="st8"
   d="m 449.6,265.1 h -15.3 c -1.4,0 -2.6,-1.1 -2.6,-2.6 v 0 c 0,-1.4 1.1,-2.6 2.6,-2.6 h 15.3 c 1.4,0 2.6,1.1 2.6,2.6 v 0 c -0.1,1.4 -1.2,2.6 -2.6,2.6 z"
   id="path430"
   inkscape:connector-curvature="0"
   style="fill:#ffffff" />
		<path
   class="st20"
   d="m 494.9,265.1 h -15.3 c -1.4,0 -2.6,-1.1 -2.6,-2.6 v 0 c 0,-1.4 1.1,-2.6 2.6,-2.6 h 15.3 c 1.4,0 2.6,1.1 2.6,2.6 v 0 c 0,1.4 -1.2,2.6 -2.6,2.6 z"
   id="path432"
   inkscape:connector-curvature="0"
   style="fill:#fe168d" />
		<path
   class="st20"
   d="m 503.7,265.1 h -1.5 c -1.4,0 -2.6,-1.1 -2.6,-2.6 v 0 c 0,-1.4 1.1,-2.6 2.6,-2.6 h 1.5 c 1.4,0 2.6,1.1 2.6,2.6 v 0 c 0,1.4 -1.1,2.6 -2.6,2.6 z"
   id="path434"
   inkscape:connector-curvature="0"
   style="fill:#fe168d" />
		<path
   class="st8"
   d="M 460.9,265.1 H 457 c -1.4,0 -2.6,-1.1 -2.6,-2.6 v 0 c 0,-1.4 1.1,-2.6 2.6,-2.6 h 3.9 c 1.4,0 2.6,1.1 2.6,2.6 v 0 c 0,1.4 -1.2,2.6 -2.6,2.6 z"
   id="path436"
   inkscape:connector-curvature="0"
   style="fill:#ffffff" />
		<path
   class="st19"
   d="m 472.2,265.1 h -3.9 c -1.4,0 -2.6,-1.1 -2.6,-2.6 v 0 c 0,-1.4 1.1,-2.6 2.6,-2.6 h 3.9 c 1.4,0 2.6,1.1 2.6,2.6 v 0 c -0.1,1.4 -1.2,2.6 -2.6,2.6 z"
   id="path438"
   inkscape:connector-curvature="0"
   style="fill:#c2ffc2" />
		<path
   class="st8"
   d="m 452.9,274.5 h -18.7 c -1.4,0 -2.6,-1.1 -2.6,-2.6 v 0 c 0,-1.4 1.1,-2.6 2.6,-2.6 h 18.7 c 1.4,0 2.6,1.1 2.6,2.6 v 0 c 0,1.5 -1.2,2.6 -2.6,2.6 z"
   id="path440"
   inkscape:connector-curvature="0"
   style="fill:#ffffff" />
		<path
   class="st21"
   d="m 505.8,274.5 h -18.7 c -1.4,0 -2.6,-1.1 -2.6,-2.6 v 0 c 0,-1.4 1.1,-2.6 2.6,-2.6 h 18.7 c 1.4,0 2.6,1.1 2.6,2.6 v 0 c -0.1,1.5 -1.2,2.6 -2.6,2.6 z"
   id="path442"
   inkscape:connector-curvature="0"
   style="fill:#00ffff" />
		<path
   class="st21"
   d="m 516,274.5 h -2.6 c -1.4,0 -2.6,-1.1 -2.6,-2.6 v 0 c 0,-1.4 1.1,-2.6 2.6,-2.6 h 2.6 c 1.4,0 2.6,1.1 2.6,2.6 v 0 c 0,1.5 -1.2,2.6 -2.6,2.6 z"
   id="path444"
   inkscape:connector-curvature="0"
   style="fill:#00ffff" />
		<path
   class="st21"
   d="m 466.1,274.5 h -5.4 c -1.4,0 -2.6,-1.1 -2.6,-2.6 v 0 c 0,-1.4 1.1,-2.6 2.6,-2.6 h 5.4 c 1.4,0 2.6,1.1 2.6,2.6 v 0 c 0,1.5 -1.1,2.6 -2.6,2.6 z"
   id="path446"
   inkscape:connector-curvature="0"
   style="fill:#00ffff" />
		<path
   class="st21"
   d="m 479.2,274.5 h -5.4 c -1.4,0 -2.6,-1.1 -2.6,-2.6 v 0 c 0,-1.4 1.1,-2.6 2.6,-2.6 h 5.4 c 1.4,0 2.6,1.1 2.6,2.6 v 0 c 0,1.5 -1.1,2.6 -2.6,2.6 z"
   id="path448"
   inkscape:connector-curvature="0"
   style="fill:#00ffff" />
		<path
   class="st19"
   d="m 458.4,293.3 h -24.2 c -1.4,0 -2.6,-1.1 -2.6,-2.6 v 0 c 0,-1.4 1.1,-2.6 2.6,-2.6 h 24.2 c 1.4,0 2.6,1.1 2.6,2.6 v 0 c 0,1.5 -1.2,2.6 -2.6,2.6 z"
   id="path450"
   inkscape:connector-curvature="0"
   style="fill:#c2ffc2" />
		<path
   class="st20"
   d="m 508.8,293.3 h -0.9 c -1.4,0 -2.6,-1.1 -2.6,-2.6 v 0 c 0,-1.4 1.1,-2.6 2.6,-2.6 h 0.9 c 1.4,0 2.6,1.1 2.6,2.6 v 0 c -0.1,1.5 -1.2,2.6 -2.6,2.6 z"
   id="path452"
   inkscape:connector-curvature="0"
   style="fill:#fe168d" />
		<g
   id="g472">
			<path
   class="st22"
   d="m 493.3,208.7 h -13.1 c -1.4,0 -2.6,-1.1 -2.6,-2.6 v 0 c 0,-1.4 1.1,-2.6 2.6,-2.6 h 13.1 c 1.4,0 2.6,1.1 2.6,2.6 v 0 c 0,1.4 -1.2,2.6 -2.6,2.6 z"
   id="path454"
   inkscape:connector-curvature="0"
   style="fill:#ffe068" />
			<path
   class="st22"
   d="m 501.7,227.5 h -2.5 c -1.4,0 -2.6,-1.1 -2.6,-2.6 v 0 c 0,-1.4 1.1,-2.6 2.6,-2.6 h 2.5 c 1.4,0 2.6,1.1 2.6,2.6 v 0 c 0,1.4 -1.2,2.6 -2.6,2.6 z"
   id="path456"
   inkscape:connector-curvature="0"
   style="fill:#ffe068" />
			<path
   class="st22"
   d="m 512.6,227.5 h -2.5 c -1.4,0 -2.6,-1.1 -2.6,-2.6 v 0 c 0,-1.4 1.1,-2.6 2.6,-2.6 h 2.5 c 1.4,0 2.6,1.1 2.6,2.6 v 0 c -0.1,1.4 -1.2,2.6 -2.6,2.6 z"
   id="path458"
   inkscape:connector-curvature="0"
   style="fill:#ffe068" />
			<path
   class="st22"
   d="M 523.4,227.5 H 521 c -1.4,0 -2.6,-1.1 -2.6,-2.6 v 0 c 0,-1.4 1.1,-2.6 2.6,-2.6 h 2.5 c 1.4,0 2.6,1.1 2.6,2.6 v 0 c -0.1,1.4 -1.3,2.6 -2.7,2.6 z"
   id="path460"
   inkscape:connector-curvature="0"
   style="fill:#ffe068" />
			<path
   class="st22"
   d="m 489.8,255.7 h -12.1 c -1.4,0 -2.6,-1.1 -2.6,-2.6 v 0 c 0,-1.4 1.1,-2.6 2.6,-2.6 h 12.1 c 1.4,0 2.6,1.1 2.6,2.6 v 0 c -0.1,1.4 -1.2,2.6 -2.6,2.6 z"
   id="path462"
   inkscape:connector-curvature="0"
   style="fill:#ffe068" />
			<path
   class="st22"
   d="m 511.2,255.7 h -12.1 c -1.4,0 -2.6,-1.1 -2.6,-2.6 v 0 c 0,-1.4 1.1,-2.6 2.6,-2.6 h 12.1 c 1.4,0 2.6,1.1 2.6,2.6 v 0 c -0.1,1.4 -1.2,2.6 -2.6,2.6 z"
   id="path464"
   inkscape:connector-curvature="0"
   style="fill:#ffe068" />
			<path
   class="st22"
   d="m 500.8,293.3 h -13.4 c -1.4,0 -2.6,-1.1 -2.6,-2.6 v 0 c 0,-1.4 1.1,-2.6 2.6,-2.6 h 13.4 c 1.4,0 2.6,1.1 2.6,2.6 v 0 c -0.1,1.5 -1.2,2.6 -2.6,2.6 z"
   id="path466"
   inkscape:connector-curvature="0"
   style="fill:#ffe068" />
			<path
   class="st22"
   d="m 469.9,293.3 h -3.1 c -1.4,0 -2.6,-1.1 -2.6,-2.6 v 0 c 0,-1.4 1.1,-2.6 2.6,-2.6 h 3.1 c 1.4,0 2.6,1.1 2.6,2.6 v 0 c 0,1.5 -1.1,2.6 -2.6,2.6 z"
   id="path468"
   inkscape:connector-curvature="0"
   style="fill:#ffe068" />
			<path
   class="st22"
   d="M 480.1,293.3 H 477 c -1.4,0 -2.6,-1.1 -2.6,-2.6 v 0 c 0,-1.4 1.1,-2.6 2.6,-2.6 h 3.1 c 1.4,0 2.6,1.1 2.6,2.6 v 0 c 0,1.5 -1.2,2.6 -2.6,2.6 z"
   id="path470"
   inkscape:connector-curvature="0"
   style="fill:#ffe068" />
		</g>
		<path
   class="st21"
   d="m 458.4,302.7 h -24.2 c -1.4,0 -2.6,-1.1 -2.6,-2.6 v 0 c 0,-1.4 1.1,-2.6 2.6,-2.6 h 24.2 c 1.4,0 2.6,1.1 2.6,2.6 v 0 c 0,1.5 -1.2,2.6 -2.6,2.6 z"
   id="path474"
   inkscape:connector-curvature="0"
   style="fill:#00ffff" />
		<path
   class="st21"
   d="m 523.4,302.7 h -24.2 c -1.4,0 -2.6,-1.1 -2.6,-2.6 v 0 c 0,-1.4 1.1,-2.6 2.6,-2.6 h 24.2 c 1.4,0 2.6,1.1 2.6,2.6 v 0 c 0,1.5 -1.2,2.6 -2.6,2.6 z"
   id="path476"
   inkscape:connector-curvature="0"
   style="fill:#00ffff" />
		<path
   class="st21"
   d="m 536.1,302.7 h -4.4 c -1.4,0 -2.6,-1.1 -2.6,-2.6 v 0 c 0,-1.4 1.1,-2.6 2.6,-2.6 h 4.4 c 1.4,0 2.6,1.1 2.6,2.6 v 0 c -0.1,1.5 -1.2,2.6 -2.6,2.6 z"
   id="path478"
   inkscape:connector-curvature="0"
   style="fill:#00ffff" />
		<path
   class="st20"
   d="m 474.7,302.7 h -7.8 c -1.4,0 -2.6,-1.1 -2.6,-2.6 v 0 c 0,-1.4 1.1,-2.6 2.6,-2.6 h 7.8 c 1.4,0 2.6,1.1 2.6,2.6 v 0 c -0.1,1.5 -1.2,2.6 -2.6,2.6 z"
   id="path480"
   inkscape:connector-curvature="0"
   style="fill:#fe168d" />
		<path
   class="st20"
   d="M 490.8,302.7 H 483 c -1.4,0 -2.6,-1.1 -2.6,-2.6 v 0 c 0,-1.4 1.1,-2.6 2.6,-2.6 h 7.8 c 1.4,0 2.6,1.1 2.6,2.6 v 0 c -0.1,1.5 -1.2,2.6 -2.6,2.6 z"
   id="path482"
   inkscape:connector-curvature="0"
   style="fill:#fe168d" />
		<g
   id="g488">
			<polygon
   class="st23"
   points="420.9,271.1 500.7,191.4 532.9,191.4 420.9,303.4 "
   id="polygon484"
   style="opacity:0.2;fill:#ffffff" />
			<polygon
   class="st23"
   points="443.4,324.1 576.1,191.4 637.1,191.4 504.4,324.1 "
   id="polygon486"
   style="opacity:0.2;fill:#ffffff" />
		</g>
	</g>
	<g
   id="g520">
		<g
   id="g496">
			<path
   class="st19"
   d="m 690.4,350 c 0,14.2 5.1,23.4 11.4,23.4 v -51.5 c 0,0 -11.4,13.9 -11.4,28.1 z"
   id="path492"
   inkscape:connector-curvature="0"
   style="fill:#c2ffc2" />
			<path
   class="st11"
   d="m 701.8,321.9 v 51.5 c 6.3,0 11.4,-9.2 11.4,-23.4 0,-14.2 -11.4,-28.1 -11.4,-28.1 z"
   id="path494"
   inkscape:connector-curvature="0"
   style="fill:#80a880" />
		</g>
		<g
   id="g502">
			<path
   class="st19"
   d="m 712.3,349.5 c -10.1,10.1 -13,20.2 -8.5,24.6 l 36.4,-36.4 c 0.1,0 -17.8,1.7 -27.9,11.8 z"
   id="path498"
   inkscape:connector-curvature="0"
   style="fill:#c2ffc2" />
			<path
   class="st11"
   d="m 740.3,337.7 -36.4,36.4 c 4.5,4.5 14.6,1.6 24.6,-8.5 10,-10 11.8,-27.9 11.8,-27.9 z"
   id="path500"
   inkscape:connector-curvature="0"
   style="fill:#80a880" />
		</g>
		<g
   id="g508">
			<path
   class="st19"
   d="m 691.3,349.5 c 10.1,10.1 13,20.2 8.5,24.6 l -36.4,-36.4 c -0.1,0 17.8,1.7 27.9,11.8 z"
   id="path504"
   inkscape:connector-curvature="0"
   style="fill:#c2ffc2" />
			<path
   class="st11"
   d="m 663.3,337.7 36.4,36.4 c -4.5,4.5 -14.6,1.6 -24.6,-8.5 -10,-10 -11.8,-27.9 -11.8,-27.9 z"
   id="path506"
   inkscape:connector-curvature="0"
   style="fill:#80a880" />
		</g>
		<g
   id="g518">
			<path
   class="st13"
   d="M 701.8,370.5 V 415 h 18.6 2.2 c 1.7,0 3.1,-1.4 3.1,-3.1 v -41.3 h -23.9 z"
   id="path510"
   inkscape:connector-curvature="0"
   style="fill:#8fb4c9" />
			<path
   class="st16"
   d="m 701.8,370.5 h -23.9 v 41.3 c 0,1.7 1.4,3.1 3.1,3.1 h 2.2 18.6 z"
   id="path512"
   inkscape:connector-curvature="0"
   style="fill:#a4cde7" />
			<rect
   x="701.79999"
   y="415"
   class="st24"
   width="18.6"
   height="5"
   id="rect514"
   style="fill:#528aa8" />
			<rect
   x="683.20001"
   y="415"
   class="st25"
   width="18.6"
   height="5"
   id="rect516"
   style="fill:#79a3ba" />
		</g>
	</g>
</g>
</svg>